<?xml version="1.0" encoding="UTF-8" standalone="no"?>
<!-- Created with Inkscape (http://www.inkscape.org/) -->

<svg
   xmlns:dc="http://purl.org/dc/elements/1.1/"
   xmlns:cc="http://creativecommons.org/ns#"
   xmlns:rdf="http://www.w3.org/1999/02/22-rdf-syntax-ns#"
   xmlns:svg="http://www.w3.org/2000/svg"
   xmlns="http://www.w3.org/2000/svg"
   xmlns:sodipodi="http://sodipodi.sourceforge.net/DTD/sodipodi-0.dtd"
   xmlns:inkscape="http://www.inkscape.org/namespaces/inkscape"
   id="svg2"
   version="1.1"
   inkscape:version="0.48.4 r9939"
   width="483.75"
   height="268.75"
   xml:space="preserve"
   sodipodi:docname="credential.svg"><metadata
     id="metadata8"><rdf:RDF><cc:Work
         rdf:about=""><dc:format>image/svg+xml</dc:format><dc:type
           rdf:resource="http://purl.org/dc/dcmitype/StillImage" /><dc:title /></cc:Work></rdf:RDF></metadata><defs
     id="defs6"><marker
       inkscape:stockid="Arrow2Mend"
       orient="auto"
       refY="0.0"
       refX="0.0"
       id="Arrow2Mend"
       style="overflow:visible;"><path
         id="path4106"
         style="fill-rule:evenodd;stroke-width:0.62500000;stroke-linejoin:round;"
         d="M 8.7185878,4.0337352 L -2.2072895,0.016013256 L 8.7185884,-4.0017078 C 6.9730900,-1.6296469 6.9831476,1.6157441 8.7185878,4.0337352 z "
         transform="scale(0.6) rotate(180) translate(0,0)" /></marker><marker
       inkscape:stockid="Arrow2Lend"
       orient="auto"
       refY="0.0"
       refX="0.0"
       id="Arrow2Lend"
       style="overflow:visible;"><path
         id="path4100"
         style="fill-rule:evenodd;stroke-width:0.62500000;stroke-linejoin:round;"
         d="M 8.7185878,4.0337352 L -2.2072895,0.016013256 L 8.7185884,-4.0017078 C 6.9730900,-1.6296469 6.9831476,1.6157441 8.7185878,4.0337352 z "
         transform="scale(1.1) rotate(180) translate(1,0)" /></marker><marker
       inkscape:stockid="Arrow2Mend"
       orient="auto"
       refY="0"
       refX="0"
       id="Arrow2Mend-5"
       style="overflow:visible"><path
         inkscape:connector-curvature="0"
         id="path4106-0"
         style="fill-rule:evenodd;stroke-width:0.625;stroke-linejoin:round"
         d="M 8.7185878,4.0337352 -2.2072895,0.01601326 8.7185884,-4.0017078 c -1.7454984,2.3720609 -1.7354408,5.6174519 -6e-7,8.035443 z"
         transform="scale(-0.6,-0.6)" /></marker><marker
       inkscape:stockid="Arrow2Mend"
       orient="auto"
       refY="0"
       refX="0"
       id="Arrow2Mend-7"
       style="overflow:visible"><path
         inkscape:connector-curvature="0"
         id="path4106-05"
         style="fill-rule:evenodd;stroke-width:0.625;stroke-linejoin:round"
         d="M 8.7185878,4.0337352 -2.2072895,0.01601326 8.7185884,-4.0017078 c -1.7454984,2.3720609 -1.7354408,5.6174519 -6e-7,8.035443 z"
         transform="scale(-0.6,-0.6)" /></marker><marker
       inkscape:stockid="Arrow2Mend"
       orient="auto"
       refY="0"
       refX="0"
       id="Arrow2Mend-6"
       style="overflow:visible"><path
         inkscape:connector-curvature="0"
         id="path4106-7"
         style="fill-rule:evenodd;stroke-width:0.625;stroke-linejoin:round"
         d="M 8.7185878,4.0337352 -2.2072895,0.01601326 8.7185884,-4.0017078 c -1.7454984,2.3720609 -1.7354408,5.6174519 -6e-7,8.035443 z"
         transform="scale(-0.6,-0.6)" /></marker><marker
       inkscape:stockid="Arrow2Mend"
       orient="auto"
       refY="0"
       refX="0"
       id="Arrow2Mend-0"
       style="overflow:visible"><path
         inkscape:connector-curvature="0"
         id="path4106-78"
         style="fill-rule:evenodd;stroke-width:0.625;stroke-linejoin:round"
         d="M 8.7185878,4.0337352 -2.2072895,0.01601326 8.7185884,-4.0017078 c -1.7454984,2.3720609 -1.7354408,5.6174519 -6e-7,8.035443 z"
         transform="scale(-0.6,-0.6)" /></marker><marker
       inkscape:stockid="Arrow2Mend"
       orient="auto"
       refY="0"
       refX="0"
       id="Arrow2Mend-2"
       style="overflow:visible"><path
         inkscape:connector-curvature="0"
         id="path4106-07"
         style="fill-rule:evenodd;stroke-width:0.625;stroke-linejoin:round"
         d="M 8.7185878,4.0337352 -2.2072895,0.01601326 8.7185884,-4.0017078 c -1.7454984,2.3720609 -1.7354408,5.6174519 -6e-7,8.035443 z"
         transform="scale(-0.6,-0.6)" /></marker></defs><sodipodi:namedview
     pagecolor="#ffffff"
     bordercolor="#666666"
     borderopacity="1"
     objecttolerance="10"
     gridtolerance="10"
     guidetolerance="10"
     inkscape:pageopacity="0"
     inkscape:pageshadow="2"
     inkscape:window-width="1920"
     inkscape:window-height="1028"
     id="namedview4"
     showgrid="false"
     inkscape:zoom="3.0222222"
     inkscape:cx="239.85509"
     inkscape:cy="95.645971"
     inkscape:window-x="0"
     inkscape:window-y="28"
     inkscape:window-maximized="1"
     inkscape:current-layer="g10" /><g
     id="g10"
     inkscape:groupmode="layer"
     inkscape:label="ink_ext_XXXXXX"
     transform="matrix(1.25,0,0,-1.25,0,268.75)"><path
       inkscape:connector-curvature="0"
       id="path14"
       style="fill:#ffffff;fill-opacity:1;fill-rule:nonzero;stroke:none"
       d="M 6,121.4 6,52.6 C 6,47.8504 9.85039,44 14.6,44 l 346.8,0 c 4.75,0 8.6,3.8504 8.6,8.6 l 0,68.8 c 0,4.75 -3.85,8.6 -8.6,8.6 L 14.6,130 C 9.85039,130 6,126.15 6,121.4" /><path
       inkscape:connector-curvature="0"
       id="path16"
       style="fill:none;stroke:#000000;stroke-width:2;stroke-linecap:butt;stroke-linejoin:miter;stroke-miterlimit:10;stroke-opacity:1;stroke-dasharray:none"
       d="M 6,121.4 6,52.6 C 6,47.8504 9.85039,44 14.6,44 l 346.8,0 c 4.75,0 8.6,3.8504 8.6,8.6 l 0,68.8 c 0,4.75 -3.85,8.6 -8.6,8.6 L 14.6,130 C 9.85039,130 6,126.15 6,121.4 z" /><path
       inkscape:connector-curvature="0"
       id="path18"
       style="fill:#666666;fill-opacity:1;fill-rule:nonzero;stroke:none"
       d="m 14.285193,53 69,0 0,69 -69,0 0,-69 z" /><path
       inkscape:connector-curvature="0"
       id="path20"
       style="fill:none;stroke:#000000;stroke-width:2;stroke-linecap:butt;stroke-linejoin:miter;stroke-miterlimit:10;stroke-opacity:1;stroke-dasharray:none"
       d="m 14.285193,53 69,0 0,69 -69,0 0,-69 z" /><path
       inkscape:connector-curvature="0"
       id="path22"
       style="fill:#cccccc;fill-opacity:1;fill-rule:nonzero;stroke:none"
       d="m 84,53 69,0 0,69 -69,0 0,-69 z" /><path
       inkscape:connector-curvature="0"
       id="path24"
       style="fill:none;stroke:#000000;stroke-width:2;stroke-linecap:butt;stroke-linejoin:miter;stroke-miterlimit:10;stroke-opacity:1;stroke-dasharray:none"
       d="m 84,53 69,0 0,69 -69,0 0,-69 z" /><path
       inkscape:connector-curvature="0"
       id="path26"
       style="fill:#cccccc;fill-opacity:1;fill-rule:nonzero;stroke:none"
       d="m 154,53 69,0 0,69 -69,0 0,-69 z" /><path
       inkscape:connector-curvature="0"
       id="path30"
       style="fill:#cccccc;fill-opacity:1;fill-rule:nonzero;stroke:none"
       d="m 224,53 69,0 0,69 -69,0 0,-69 z" /><g
       id="g4971"><path
         d="m 154,53 69,0 0,69 -69,0 0,-69 z"
         style="fill:none;stroke:#000000;stroke-width:2;stroke-linecap:butt;stroke-linejoin:miter;stroke-miterlimit:10;stroke-opacity:1;stroke-dasharray:none"
         id="path28"
         inkscape:connector-curvature="0" /><path
         d="m 224,53 69,0 0,69 -69,0 0,-69 z"
         style="fill:none;stroke:#000000;stroke-width:2;stroke-linecap:butt;stroke-linejoin:miter;stroke-miterlimit:10;stroke-opacity:1;stroke-dasharray:none"
         id="path32"
         inkscape:connector-curvature="0" /></g><path
       inkscape:connector-curvature="0"
       id="path34"
       style="fill:#cccccc;fill-opacity:1;fill-rule:nonzero;stroke:none"
       d="m 294,53 69,0 0,69 -69,0 0,-69 z" /><path
       inkscape:connector-curvature="0"
       id="path36"
       style="fill:none;stroke:#000000;stroke-width:2;stroke-linecap:butt;stroke-linejoin:miter;stroke-miterlimit:10;stroke-opacity:1;stroke-dasharray:none"
       d="m 294,53 69,0 0,69 -69,0 0,-69 z" /><path
       inkscape:connector-curvature="0"
       id="path62"
       style="fill:#666666;fill-opacity:1;fill-rule:nonzero;stroke:none"
       d="m 345.27757,37.325481 -0.625,-3.125 c -0.3125,-1.5625 -1.25,-4.0625 -1.875,-5 -0.625,-0.9375 -2.1875,-3.125 -3.125,-4.375 -0.9375,-1.25 -2.8125,-3.4375 -3.75,-4.375 -0.9375,-0.9375 -2.5,-3.125 -3.125,-4.375 -0.625,-1.25 -2.1875,-3.75 -3.125,-5 -0.9375,-1.25 -3.4375,-3.75 -5,-5 -1.5625,-1.25 -3.75,-3.4375 -4.375,-4.375 -0.625,-0.9375 0.3125,-2.8125 1.875,-3.75 1.5625,-0.9375 4.6875,-2.5000001 6.25,-3.1250001 1.5625,-0.625 5,-1.25 6.875,-1.25 1.875,0 4.6875,0.625 5.625,1.25 0.9375,0.625 1.875,3.1250001 1.875,5.0000001 0,1.875 0.3125,5 0.625,6.25 0.3125,1.25 1.875,3.75 3.125,5 1.25,1.25 3.75,3.4375 5,4.375 1.25,0.9375 2.8125,3.4375 3.125,5 0.3125,1.5625 0.625,4.6875 0.625,6.25 0,1.5625 0.3125,4.375 1.25,8.125" /><path
       inkscape:connector-curvature="0"
       id="path64"
       style="fill:none;stroke:#000000;stroke-width:2.5;stroke-linecap:butt;stroke-linejoin:miter;stroke-miterlimit:10;stroke-opacity:1;stroke-dasharray:none"
       d="m 345.27757,37.325481 -0.625,-3.125 c -0.3125,-1.5625 -1.25,-4.0625 -1.875,-5 -0.625,-0.9375 -2.1875,-3.125 -3.125,-4.375 -0.9375,-1.25 -2.8125,-3.4375 -3.75,-4.375 -0.9375,-0.9375 -2.5,-3.125 -3.125,-4.375 -0.625,-1.25 -2.1875,-3.75 -3.125,-5 -0.9375,-1.25 -3.4375,-3.75 -5,-5 -1.5625,-1.25 -3.75,-3.4375 -4.375,-4.375 -0.625,-0.9375 0.3125,-2.8125 1.875,-3.75 1.5625,-0.9375 4.6875,-2.5000001 6.25,-3.1250001 1.5625,-0.625 5,-1.25 6.875,-1.25 1.875,0 4.6875,0.625 5.625,1.25 0.9375,0.625 1.875,3.1250001 1.875,5.0000001 0,1.875 0.3125,5 0.625,6.25 0.3125,1.25 1.875,3.75 3.125,5 1.25,1.25 3.75,3.4375 5,4.375 1.25,0.9375 2.8125,3.4375 3.125,5 0.3125,1.5625 0.625,4.6875 0.625,6.25 0,1.5625 0.3125,4.375 1.25,8.125" /><path
       inkscape:connector-curvature="0"
       id="path66"
       style="fill:#666666;fill-opacity:1;fill-rule:nonzero;stroke:none"
       d="m 361.52757,32.325481 1.875,-3.125 c 0.9375,-1.5625 1.875,-4.6875 1.875,-6.25 0,-1.5625 0,-4.6875 0,-6.25 0,-1.5625 0,-4.6875 0,-6.25 0,-1.5625 0,-4.375 0,-5.625 0,-1.25 0.625,-3.4375 1.25,-4.375 0.625,-0.9375 3.125,-3.125 5,-4.375 1.875,-1.2500001 5,-1.8750001 6.25,-1.2500001 1.25,0.625 3.4375,2.1875001 4.375,3.1250001 0.9375,0.9375 3.125,2.8125 4.375,3.75 1.25,0.9375 1.5625,3.125 0.625,4.375 -0.9375,1.25 -2.5,4.0625 -3.125,5.625 -0.625,1.5625 -1.25,4.6875 -1.25,6.25 0,1.5625 -0.3125,4.375 -0.625,5.625 -0.3125,1.25 -1.25,3.75 -1.875,5 -0.625,1.25 -1.5625,3.75 -1.875,5 -0.3125,1.25 -0.625,3.125 -0.625,5" /><path
       inkscape:connector-curvature="0"
       id="path68"
       style="fill:none;stroke:#000000;stroke-width:2.5;stroke-linecap:butt;stroke-linejoin:miter;stroke-miterlimit:10;stroke-opacity:1;stroke-dasharray:none"
       d="m 361.52757,32.325481 1.875,-3.125 c 0.9375,-1.5625 1.875,-4.6875 1.875,-6.25 0,-1.5625 0,-4.6875 0,-6.25 0,-1.5625 0,-4.6875 0,-6.25 0,-1.5625 0,-4.375 0,-5.625 0,-1.25 0.625,-3.4375 1.25,-4.375 0.625,-0.9375 3.125,-3.125 5,-4.375 1.875,-1.2500001 5,-1.8750001 6.25,-1.2500001 1.25,0.625 3.4375,2.1875001 4.375,3.1250001 0.9375,0.9375 3.125,2.8125 4.375,3.75 1.25,0.9375 1.5625,3.125 0.625,4.375 -0.9375,1.25 -2.5,4.0625 -3.125,5.625 -0.625,1.5625 -1.25,4.6875 -1.25,6.25 0,1.5625 -0.3125,4.375 -0.625,5.625 -0.3125,1.25 -1.25,3.75 -1.875,5 -0.625,1.25 -1.5625,3.75 -1.875,5 -0.3125,1.25 -0.625,3.125 -0.625,5" /><path
       inkscape:connector-curvature="0"
       id="path70"
       style="fill:#666666;fill-opacity:1;fill-rule:nonzero;stroke:none"
       d="m 326.33067,47.691483 3.125,2.34375 c 1.5625,1.171875 2.34375,3.90625 1.5625,5.46875 -0.78125,1.5625 1.17188,3.90625 3.90625,4.6875 2.73438,0.78125 5.46875,3.515625 5.46875,5.46875 0,1.953125 3.125,3.90625 6.25,3.90625 3.125,0 7.8125,0.390625 9.375,0.78125 1.5625,0.390625 3.51563,2.34375 3.90625,3.90625 0.39063,1.5625 0,3.125 -0.78125,3.125 -0.78125,0 0.39063,0.78125 2.34375,1.5625 1.95313,0.78125 5.46875,0 7.03125,-1.5625 1.5625,-1.5625 5.46875,-3.515625 7.8125,-3.90625 2.34375,-0.390625 5.07813,-2.34375 5.46875,-3.90625 0.39063,-1.5625 2.34375,-3.515625 3.90625,-3.90625 1.5625,-0.390625 3.90625,-0.78125 4.6875,-0.78125 0.78125,0 0.39063,-1.171875 -0.78125,-2.34375 -1.17187,-1.171875 -3.51562,-3.515625 -4.6875,-4.6875 -1.17187,-1.171875 -3.125,-2.734375 -3.90625,-3.125 -0.78125,-0.390625 0.39063,-0.78125 2.34375,-0.78125 1.95313,0 4.6875,-0.78125 5.46875,-1.5625 0.78125,-0.78125 -0.39062,-2.734375 -2.34375,-3.90625 -1.95312,-1.171875 -4.6875,-4.296875 -5.46875,-6.25 -0.78125,-1.953125 -0.78125,-5.078125 0,-6.25 0.78125,-1.171875 0,-2.734375 -1.5625,-3.125 -1.5625,-0.390625 -4.6875,-0.390625 -6.25,0 -1.5625,0.390625 -5.46875,-1.171875 -7.8125,-3.125 -2.34375,-1.953125 -5.85937,-4.296875 -7.03125,-4.6875 -1.17187,-0.390625 -3.125,1.171875 -3.90625,3.125 -0.78125,1.953125 -2.73437,3.90625 -3.90625,3.90625 -1.17187,0 -5.46875,-0.78125 -8.59375,-1.5625 -3.125,-0.78125 -6.64062,0 -7.03125,1.5625 -0.39062,1.5625 1.17188,5.078125 3.125,7.03125 1.95313,1.953125 1.95313,3.90625 0,3.90625 -1.95312,0 -5.85937,0 -7.8125,0 -1.95312,0 -3.90625,1.171875 -3.90625,2.34375 0,1.171875 0.39063,2.734375 1.5625,3.90625" /><path
       inkscape:connector-curvature="0"
       id="path72"
       style="fill:none;stroke:#000000;stroke-width:3.125;stroke-linecap:butt;stroke-linejoin:miter;stroke-miterlimit:10;stroke-opacity:1;stroke-dasharray:none"
       d="m 326.33067,47.691483 3.125,2.34375 c 1.5625,1.171875 2.34375,3.90625 1.5625,5.46875 -0.78125,1.5625 1.17188,3.90625 3.90625,4.6875 2.73438,0.78125 5.46875,3.515625 5.46875,5.46875 0,1.953125 3.125,3.90625 6.25,3.90625 3.125,0 7.8125,0.390625 9.375,0.78125 1.5625,0.390625 3.51563,2.34375 3.90625,3.90625 0.39063,1.5625 0,3.125 -0.78125,3.125 -0.78125,0 0.39063,0.78125 2.34375,1.5625 1.95313,0.78125 5.46875,0 7.03125,-1.5625 1.5625,-1.5625 5.46875,-3.515625 7.8125,-3.90625 2.34375,-0.390625 5.07813,-2.34375 5.46875,-3.90625 0.39063,-1.5625 2.34375,-3.515625 3.90625,-3.90625 1.5625,-0.390625 3.90625,-0.78125 4.6875,-0.78125 0.78125,0 0.39063,-1.171875 -0.78125,-2.34375 -1.17187,-1.171875 -3.51562,-3.515625 -4.6875,-4.6875 -1.17187,-1.171875 -3.125,-2.734375 -3.90625,-3.125 -0.78125,-0.390625 0.39063,-0.78125 2.34375,-0.78125 1.95313,0 4.6875,-0.78125 5.46875,-1.5625 0.78125,-0.78125 -0.39062,-2.734375 -2.34375,-3.90625 -1.95312,-1.171875 -4.6875,-4.296875 -5.46875,-6.25 -0.78125,-1.953125 -0.78125,-5.078125 0,-6.25 0.78125,-1.171875 0,-2.734375 -1.5625,-3.125 -1.5625,-0.390625 -4.6875,-0.390625 -6.25,0 -1.5625,0.390625 -5.46875,-1.171875 -7.8125,-3.125 -2.34375,-1.953125 -5.85937,-4.296875 -7.03125,-4.6875 -1.17187,-0.390625 -3.125,1.171875 -3.90625,3.125 -0.78125,1.953125 -2.73437,3.90625 -3.90625,3.90625 -1.17187,0 -5.46875,-0.78125 -8.59375,-1.5625 -3.125,-0.78125 -6.64062,0 -7.03125,1.5625 -0.39062,1.5625 1.17188,5.078125 3.125,7.03125 1.95313,1.953125 1.95313,3.90625 0,3.90625 -1.95312,0 -5.85937,0 -7.8125,0 -1.95312,0 -3.90625,1.171875 -3.90625,2.34375 0,1.171875 0.39063,2.734375 1.5625,3.90625" /><text
       xml:space="preserve"
       style="font-size:32px;font-style:normal;font-weight:normal;line-height:125%;letter-spacing:0px;word-spacing:0px;fill:#000000;fill-opacity:1;stroke:none;font-family:Sans"
       x="140.25371"
       y="-18.824387"
       id="text3121"
       sodipodi:linespacing="125%"
       transform="scale(1,-1)"><tspan
         sodipodi:role="line"
         id="tspan3123"
         x="140.25371"
         y="-18.824387"
         style="font-size:16px">issuer's signature</tspan></text>
<text
       xml:space="preserve"
       style="font-size:32px;font-style:normal;font-weight:normal;line-height:125%;letter-spacing:0px;word-spacing:0px;fill:#000000;fill-opacity:1;stroke:none;font-family:Sans"
       x="12.32035"
       y="-169.56787"
       id="text4705"
       sodipodi:linespacing="125%"
       transform="scale(1,-1)"><tspan
         sodipodi:role="line"
         id="tspan4707"
         x="12.32035"
         y="-169.56787"
         style="font-size:16px">user's key</tspan></text>
<text
       xml:space="preserve"
       style="font-size:32px;font-style:normal;font-weight:normal;line-height:125%;letter-spacing:0px;word-spacing:0px;fill:#000000;fill-opacity:1;stroke:none;font-family:Sans"
       x="188.17114"
       y="-165.88037"
       id="text4709"
       sodipodi:linespacing="125%"
       transform="scale(1,-1)"><tspan
         sodipodi:role="line"
         id="tspan4711"
         x="188.17114"
         y="-165.88037"
         style="font-size:16px">attributes</tspan></text>
<path
       style="fill:none;stroke:#000000;stroke-width:2.25807095;stroke-linecap:round;stroke-linejoin:miter;stroke-miterlimit:4;stroke-opacity:1;stroke-dasharray:none;marker-end:url(#Arrow2Mend)"
       d="m 48.80861,164.18657 0,-38.0276"
       id="path4713"
       inkscape:connector-curvature="0" /><path
       style="fill:none;stroke:#000000;stroke-width:2.39996505000000004;stroke-linecap:round;stroke-linejoin:miter;stroke-miterlimit:4;stroke-opacity:1;stroke-dasharray:none;marker-end:url(#Arrow2Mend)"
       d="m 270.39997,22.820104 43.6216,0"
       id="path4713-8"
       inkscape:connector-curvature="0" /><path
       style="fill:none;stroke:#000000;stroke-width:2.08361387;stroke-linecap:round;stroke-linejoin:miter;stroke-miterlimit:4;stroke-opacity:1;stroke-dasharray:none;marker-end:url(#Arrow2Mend)"
       d="M 223.20992,158.99302 191.56343,125.27548"
       id="path4713-2"
       inkscape:connector-curvature="0" /><path
       style="fill:none;stroke:#000000;stroke-width:2.08127642;stroke-linecap:round;stroke-linejoin:miter;stroke-miterlimit:4;stroke-opacity:1;stroke-dasharray:none;marker-end:url(#Arrow2Mend)"
       d="m 223.46557,158.69162 31.50496,-33.79305"
       id="path4713-2-5"
       inkscape:connector-curvature="0" /><path
       style="fill:none;stroke:#000000;stroke-width:2.10398555;stroke-linecap:round;stroke-linejoin:miter;stroke-miterlimit:4;stroke-opacity:1;stroke-dasharray:none;marker-end:url(#Arrow2Mend)"
       d="M 223.14781,158.94282 121.14224,123.76676"
       id="path4713-2-3"
       inkscape:connector-curvature="0" /><path
       style="fill:none;stroke:#000000;stroke-width:2.11338353;stroke-linecap:round;stroke-linejoin:miter;stroke-miterlimit:4;stroke-opacity:1;stroke-dasharray:none;marker-end:url(#Arrow2Mend)"
       d="M 223.25433,158.966 326.59277,123.92092"
       id="path4713-2-3-5"
       inkscape:connector-curvature="0" /></g></svg>