<?xml version="1.0" encoding="UTF-8" standalone="no"?>
<!-- Created with Inkscape (http://www.inkscape.org/) -->

<svg
   xmlns:dc="http://purl.org/dc/elements/1.1/"
   xmlns:cc="http://creativecommons.org/ns#"
   xmlns:rdf="http://www.w3.org/1999/02/22-rdf-syntax-ns#"
   xmlns:svg="http://www.w3.org/2000/svg"
   xmlns="http://www.w3.org/2000/svg"
   xmlns:sodipodi="http://sodipodi.sourceforge.net/DTD/sodipodi-0.dtd"
   xmlns:inkscape="http://www.inkscape.org/namespaces/inkscape"
   id="svg2"
   version="1.1"
   inkscape:version="0.48.4 r9939"
   width="483.75"
   height="268.75"
   xml:space="preserve"
   sodipodi:docname="figCredential.eps"><metadata
     id="metadata8"><rdf:RDF><cc:Work
         rdf:about=""><dc:format>image/svg+xml</dc:format><dc:type
           rdf:resource="http://purl.org/dc/dcmitype/StillImage" /><dc:title></dc:title></cc:Work></rdf:RDF></metadata><defs
     id="defs6"><marker
       inkscape:stockid="Arrow2Mend"
       orient="auto"
       refY="0.0"
       refX="0.0"
       id="Arrow2Mend"
       style="overflow:visible;"><path
         id="path4106"
         style="fill-rule:evenodd;stroke-width:0.62500000;stroke-linejoin:round;"
         d="M 8.7185878,4.0337352 L -2.2072895,0.016013256 L 8.7185884,-4.0017078 C 6.9730900,-1.6296469 6.9831476,1.6157441 8.7185878,4.0337352 z "
         transform="scale(0.6) rotate(180) translate(0,0)" /></marker><marker
       inkscape:stockid="Arrow2Lend"
       orient="auto"
       refY="0.0"
       refX="0.0"
       id="Arrow2Lend"
       style="overflow:visible;"><path
         id="path4100"
         style="fill-rule:evenodd;stroke-width:0.62500000;stroke-linejoin:round;"
         d="M 8.7185878,4.0337352 L -2.2072895,0.016013256 L 8.7185884,-4.0017078 C 6.9730900,-1.6296469 6.9831476,1.6157441 8.7185878,4.0337352 z "
         transform="scale(1.1) rotate(180) translate(1,0)" /></marker><marker
       inkscape:stockid="Arrow2Mend"
       orient="auto"
       refY="0"
       refX="0"
       id="Arrow2Mend-5"
       style="overflow:visible"><path
         inkscape:connector-curvature="0"
         id="path4106-0"
         style="fill-rule:evenodd;stroke-width:0.625;stroke-linejoin:round"
         d="M 8.7185878,4.0337352 -2.2072895,0.01601326 8.7185884,-4.0017078 c -1.7454984,2.3720609 -1.7354408,5.6174519 -6e-7,8.035443 z"
         transform="scale(-0.6,-0.6)" /></marker><marker
       inkscape:stockid="Arrow2Mend"
       orient="auto"
       refY="0"
       refX="0"
       id="Arrow2Mend-7"
       style="overflow:visible"><path
         inkscape:connector-curvature="0"
         id="path4106-05"
         style="fill-rule:evenodd;stroke-width:0.625;stroke-linejoin:round"
         d="M 8.7185878,4.0337352 -2.2072895,0.01601326 8.7185884,-4.0017078 c -1.7454984,2.3720609 -1.7354408,5.6174519 -6e-7,8.035443 z"
         transform="scale(-0.6,-0.6)" /></marker><marker
       inkscape:stockid="Arrow2Mend"
       orient="auto"
       refY="0"
       refX="0"
       id="Arrow2Mend-6"
       style="overflow:visible"><path
         inkscape:connector-curvature="0"
         id="path4106-7"
         style="fill-rule:evenodd;stroke-width:0.625;stroke-linejoin:round"
         d="M 8.7185878,4.0337352 -2.2072895,0.01601326 8.7185884,-4.0017078 c -1.7454984,2.3720609 -1.7354408,5.6174519 -6e-7,8.035443 z"
         transform="scale(-0.6,-0.6)" /></marker><marker
       inkscape:stockid="Arrow2Mend"
       orient="auto"
       refY="0"
       refX="0"
       id="Arrow2Mend-0"
       style="overflow:visible"><path
         inkscape:connector-curvature="0"
         id="path4106-78"
         style="fill-rule:evenodd;stroke-width:0.625;stroke-linejoin:round"
         d="M 8.7185878,4.0337352 -2.2072895,0.01601326 8.7185884,-4.0017078 c -1.7454984,2.3720609 -1.7354408,5.6174519 -6e-7,8.035443 z"
         transform="scale(-0.6,-0.6)" /></marker><marker
       inkscape:stockid="Arrow2Mend"
       orient="auto"
       refY="0"
       refX="0"
       id="Arrow2Mend-2"
       style="overflow:visible"><path
         inkscape:connector-curvature="0"
         id="path4106-07"
         style="fill-rule:evenodd;stroke-width:0.625;stroke-linejoin:round"
         d="M 8.7185878,4.0337352 -2.2072895,0.01601326 8.7185884,-4.0017078 c -1.7454984,2.3720609 -1.7354408,5.6174519 -6e-7,8.035443 z"
         transform="scale(-0.6,-0.6)" /></marker></defs><sodipodi:namedview
     pagecolor="#ffffff"
     bordercolor="#666666"
     borderopacity="1"
     objecttolerance="10"
     gridtolerance="10"
     guidetolerance="10"
     inkscape:pageopacity="0"
     inkscape:pageshadow="2"
     inkscape:window-width="1280"
     inkscape:window-height="753"
     id="namedview4"
     showgrid="false"
     inkscape:zoom="2"
     inkscape:cx="248.875"
     inkscape:cy="171.49933"
     inkscape:window-x="0"
     inkscape:window-y="26"
     inkscape:window-maximized="1"
     inkscape:current-layer="g10" /><g
     id="g10"
     inkscape:groupmode="layer"
     inkscape:label="ink_ext_XXXXXX"
     transform="matrix(1.25,0,0,-1.25,0,268.75)"><path
       inkscape:connector-curvature="0"
       id="path14"
       style="fill:#ffffff;fill-opacity:1;fill-rule:nonzero;stroke:none"
       d="M 6,121.4 6,52.6 C 6,47.8504 9.85039,44 14.6,44 l 346.8,0 c 4.75,0 8.6,3.8504 8.6,8.6 l 0,68.8 c 0,4.75 -3.85,8.6 -8.6,8.6 L 14.6,130 C 9.85039,130 6,126.15 6,121.4" /><path
       inkscape:connector-curvature="0"
       id="path16"
       style="fill:none;stroke:#000000;stroke-width:2;stroke-linecap:butt;stroke-linejoin:miter;stroke-miterlimit:10;stroke-opacity:1;stroke-dasharray:none"
       d="M 6,121.4 6,52.6 C 6,47.8504 9.85039,44 14.6,44 l 346.8,0 c 4.75,0 8.6,3.8504 8.6,8.6 l 0,68.8 c 0,4.75 -3.85,8.6 -8.6,8.6 L 14.6,130 C 9.85039,130 6,126.15 6,121.4 z" /><path
       inkscape:connector-curvature="0"
       id="path18"
       style="fill:#666666;fill-opacity:1;fill-rule:nonzero;stroke:none"
       d="m 14,53 69,0 0,69 -69,0 0,-69 z" /><path
       inkscape:connector-curvature="0"
       id="path20"
       style="fill:none;stroke:#000000;stroke-width:2;stroke-linecap:butt;stroke-linejoin:miter;stroke-miterlimit:10;stroke-opacity:1;stroke-dasharray:none"
       d="m 14,53 69,0 0,69 -69,0 0,-69 z" /><path
       inkscape:connector-curvature="0"
       id="path22"
       style="fill:#cccccc;fill-opacity:1;fill-rule:nonzero;stroke:none"
       d="m 84,53 69,0 0,69 -69,0 0,-69 z" /><path
       inkscape:connector-curvature="0"
       id="path24"
       style="fill:none;stroke:#000000;stroke-width:2;stroke-linecap:butt;stroke-linejoin:miter;stroke-miterlimit:10;stroke-opacity:1;stroke-dasharray:none"
       d="m 84,53 69,0 0,69 -69,0 0,-69 z" /><path
       inkscape:connector-curvature="0"
       id="path26"
       style="fill:#cccccc;fill-opacity:1;fill-rule:nonzero;stroke:none"
       d="m 154,53 69,0 0,69 -69,0 0,-69 z" /><path
       inkscape:connector-curvature="0"
       id="path30"
       style="fill:#cccccc;fill-opacity:1;fill-rule:nonzero;stroke:none"
       d="m 224,53 69,0 0,69 -69,0 0,-69 z" /><g
       id="g4971"><path
         d="m 154,53 69,0 0,69 -69,0 0,-69 z"
         style="fill:none;stroke:#000000;stroke-width:2;stroke-linecap:butt;stroke-linejoin:miter;stroke-miterlimit:10;stroke-opacity:1;stroke-dasharray:none"
         id="path28"
         inkscape:connector-curvature="0" /><path
         d="m 224,53 69,0 0,69 -69,0 0,-69 z"
         style="fill:none;stroke:#000000;stroke-width:2;stroke-linecap:butt;stroke-linejoin:miter;stroke-miterlimit:10;stroke-opacity:1;stroke-dasharray:none"
         id="path32"
         inkscape:connector-curvature="0" /></g><path
       inkscape:connector-curvature="0"
       id="path34"
       style="fill:#cccccc;fill-opacity:1;fill-rule:nonzero;stroke:none"
       d="m 294,53 69,0 0,69 -69,0 0,-69 z" /><path
       inkscape:connector-curvature="0"
       id="path36"
       style="fill:none;stroke:#000000;stroke-width:2;stroke-linecap:butt;stroke-linejoin:miter;stroke-miterlimit:10;stroke-opacity:1;stroke-dasharray:none"
       d="m 294,53 69,0 0,69 -69,0 0,-69 z" /><path
       inkscape:connector-curvature="0"
       id="path62"
       style="fill:#666666;fill-opacity:1;fill-rule:nonzero;stroke:none"
       d="m 347,51 -0.5,-2.5 c -0.25,-1.25 -1,-3.25 -1.5,-4 -0.5,-0.75 -1.75,-2.5 -2.5,-3.5 -0.75,-1 -2.25,-2.75 -3,-3.5 -0.75,-0.75 -2,-2.5 -2.5,-3.5 -0.5,-1 -1.75,-3 -2.5,-4 -0.75,-1 -2.75,-3 -4,-4 -1.25,-1 -3,-2.75 -3.5,-3.5 -0.5,-0.75 0.25,-2.25 1.5,-3 1.25,-0.75 3.75,-2 5,-2.5 1.25,-0.5 4,-1 5.5,-1 1.5,0 3.75,0.5 4.5,1 0.75,0.5 1.5,2.5 1.5,4 0,1.5 0.25,4 0.5,5 0.25,1 1.5,3 2.5,4 1,1 3,2.75 4,3.5 1,0.75 2.25,2.75 2.5,4 0.25,1.25 0.5,3.75 0.5,5 0,1.25 0.25,3.5 1,6.5" /><path
       inkscape:connector-curvature="0"
       id="path64"
       style="fill:none;stroke:#000000;stroke-width:2;stroke-linecap:butt;stroke-linejoin:miter;stroke-miterlimit:10;stroke-opacity:1;stroke-dasharray:none"
       d="m 347,51 -0.5,-2.5 c -0.25,-1.25 -1,-3.25 -1.5,-4 -0.5,-0.75 -1.75,-2.5 -2.5,-3.5 -0.75,-1 -2.25,-2.75 -3,-3.5 -0.75,-0.75 -2,-2.5 -2.5,-3.5 -0.5,-1 -1.75,-3 -2.5,-4 -0.75,-1 -2.75,-3 -4,-4 -1.25,-1 -3,-2.75 -3.5,-3.5 -0.5,-0.75 0.25,-2.25 1.5,-3 1.25,-0.75 3.75,-2 5,-2.5 1.25,-0.5 4,-1 5.5,-1 1.5,0 3.75,0.5 4.5,1 0.75,0.5 1.5,2.5 1.5,4 0,1.5 0.25,4 0.5,5 0.25,1 1.5,3 2.5,4 1,1 3,2.75 4,3.5 1,0.75 2.25,2.75 2.5,4 0.25,1.25 0.5,3.75 0.5,5 0,1.25 0.25,3.5 1,6.5" /><path
       inkscape:connector-curvature="0"
       id="path66"
       style="fill:#666666;fill-opacity:1;fill-rule:nonzero;stroke:none"
       d="m 360,47 1.5,-2.5 c 0.75,-1.25 1.5,-3.75 1.5,-5 0,-1.25 0,-3.75 0,-5 0,-1.25 0,-3.75 0,-5 0,-1.25 0,-3.5 0,-4.5 0,-1 0.5,-2.75 1,-3.5 0.5,-0.75 2.5,-2.5 4,-3.5 1.5,-1 4,-1.5 5,-1 1,0.5 2.75,1.75 3.5,2.5 0.75,0.75 2.5,2.25 3.5,3 1,0.75 1.25,2.5 0.5,3.5 -0.75,1 -2,3.25 -2.5,4.5 -0.5,1.25 -1,3.75 -1,5 0,1.25 -0.25,3.5 -0.5,4.5 -0.25,1 -1,3 -1.5,4 -0.5,1 -1.25,3 -1.5,4 -0.25,1 -0.5,2.5 -0.5,4" /><path
       inkscape:connector-curvature="0"
       id="path68"
       style="fill:none;stroke:#000000;stroke-width:2;stroke-linecap:butt;stroke-linejoin:miter;stroke-miterlimit:10;stroke-opacity:1;stroke-dasharray:none"
       d="m 360,47 1.5,-2.5 c 0.75,-1.25 1.5,-3.75 1.5,-5 0,-1.25 0,-3.75 0,-5 0,-1.25 0,-3.75 0,-5 0,-1.25 0,-3.5 0,-4.5 0,-1 0.5,-2.75 1,-3.5 0.5,-0.75 2.5,-2.5 4,-3.5 1.5,-1 4,-1.5 5,-1 1,0.5 2.75,1.75 3.5,2.5 0.75,0.75 2.5,2.25 3.5,3 1,0.75 1.25,2.5 0.5,3.5 -0.75,1 -2,3.25 -2.5,4.5 -0.5,1.25 -1,3.75 -1,5 0,1.25 -0.25,3.5 -0.5,4.5 -0.25,1 -1,3 -1.5,4 -0.5,1 -1.25,3 -1.5,4 -0.25,1 -0.5,2.5 -0.5,4" /><path
       inkscape:connector-curvature="0"
       id="path70"
       style="fill:#666666;fill-opacity:1;fill-rule:nonzero;stroke:none"
       d="m 337,60 2,1.5 c 1,0.75 1.5,2.5 1,3.5 -0.5,1 0.75,2.5 2.5,3 1.75,0.5 3.5,2.25 3.5,3.5 0,1.25 2,2.5 4,2.5 2,0 5,0.25 6,0.5 1,0.25 2.25,1.5 2.5,2.5 0.25,1 0,2 -0.5,2 -0.5,0 0.25,0.5 1.5,1 1.25,0.5 3.5,0 4.5,-1 1,-1 3.5,-2.25 5,-2.5 1.5,-0.25 3.25,-1.5 3.5,-2.5 0.25,-1 1.5,-2.25 2.5,-2.5 1,-0.25 2.5,-0.5 3,-0.5 0.5,0 0.25,-0.75 -0.5,-1.5 -0.75,-0.75 -2.25,-2.25 -3,-3 -0.75,-0.75 -2,-1.75 -2.5,-2 -0.5,-0.25 0.25,-0.5 1.5,-0.5 1.25,0 3,-0.5 3.5,-1 0.5,-0.5 -0.25,-1.75 -1.5,-2.5 -1.25,-0.75 -3,-2.75 -3.5,-4 -0.5,-1.25 -0.5,-3.25 0,-4 0.5,-0.75 0,-1.75 -1,-2 -1,-0.25 -3,-0.25 -4,0 -1,0.25 -3.5,-0.75 -5,-2 -1.5,-1.25 -3.75,-2.75 -4.5,-3 -0.75,-0.25 -2,0.75 -2.5,2 -0.5,1.25 -1.75,2.5 -2.5,2.5 -0.75,0 -3.5,-0.5 -5.5,-1 -2,-0.5 -4.25,0 -4.5,1 -0.25,1 0.75,3.25 2,4.5 1.25,1.25 1.25,2.5 0,2.5 -1.25,0 -3.75,0 -5,0 -1.25,0 -2.5,0.75 -2.5,1.5 0,0.75 0.25,1.75 1,2.5" /><path
       inkscape:connector-curvature="0"
       id="path72"
       style="fill:none;stroke:#000000;stroke-width:2;stroke-linecap:butt;stroke-linejoin:miter;stroke-miterlimit:10;stroke-opacity:1;stroke-dasharray:none"
       d="m 337,60 2,1.5 c 1,0.75 1.5,2.5 1,3.5 -0.5,1 0.75,2.5 2.5,3 1.75,0.5 3.5,2.25 3.5,3.5 0,1.25 2,2.5 4,2.5 2,0 5,0.25 6,0.5 1,0.25 2.25,1.5 2.5,2.5 0.25,1 0,2 -0.5,2 -0.5,0 0.25,0.5 1.5,1 1.25,0.5 3.5,0 4.5,-1 1,-1 3.5,-2.25 5,-2.5 1.5,-0.25 3.25,-1.5 3.5,-2.5 0.25,-1 1.5,-2.25 2.5,-2.5 1,-0.25 2.5,-0.5 3,-0.5 0.5,0 0.25,-0.75 -0.5,-1.5 -0.75,-0.75 -2.25,-2.25 -3,-3 -0.75,-0.75 -2,-1.75 -2.5,-2 -0.5,-0.25 0.25,-0.5 1.5,-0.5 1.25,0 3,-0.5 3.5,-1 0.5,-0.5 -0.25,-1.75 -1.5,-2.5 -1.25,-0.75 -3,-2.75 -3.5,-4 -0.5,-1.25 -0.5,-3.25 0,-4 0.5,-0.75 0,-1.75 -1,-2 -1,-0.25 -3,-0.25 -4,0 -1,0.25 -3.5,-0.75 -5,-2 -1.5,-1.25 -3.75,-2.75 -4.5,-3 -0.75,-0.25 -2,0.75 -2.5,2 -0.5,1.25 -1.75,2.5 -2.5,2.5 -0.75,0 -3.5,-0.5 -5.5,-1 -2,-0.5 -4.25,0 -4.5,1 -0.25,1 0.75,3.25 2,4.5 1.25,1.25 1.25,2.5 0,2.5 -1.25,0 -3.75,0 -5,0 -1.25,0 -2.5,0.75 -2.5,1.5 0,0.75 0.25,1.75 1,2.5" /><text
       xml:space="preserve"
       style="font-size:32px;font-style:normal;font-weight:normal;line-height:125%;letter-spacing:0px;word-spacing:0px;fill:#000000;fill-opacity:1;stroke:none;font-family:Sans"
       x="127.45367"
       y="-23.624388"
       id="text3121"
       sodipodi:linespacing="125%"
       transform="scale(1,-1)"><tspan
         sodipodi:role="line"
         id="tspan3123"
         x="127.45367"
         y="-23.624388"
         style="font-size:16px">issuer's signature</tspan></text>
<text
       xml:space="preserve"
       style="font-size:32px;font-style:normal;font-weight:normal;line-height:125%;letter-spacing:0px;word-spacing:0px;fill:#000000;fill-opacity:1;stroke:none;font-family:Sans"
       x="6.5219483"
       y="-177.08289"
       id="text4705"
       sodipodi:linespacing="125%"
       transform="scale(1,-1)"><tspan
         sodipodi:role="line"
         id="tspan4707"
         x="6.5219483"
         y="-177.08289"
         style="font-size:16px">secret key</tspan></text>
<text
       xml:space="preserve"
       style="font-size:32px;font-style:normal;font-weight:normal;line-height:125%;letter-spacing:0px;word-spacing:0px;fill:#000000;fill-opacity:1;stroke:none;font-family:Sans"
       x="184.32031"
       y="-175.37555"
       id="text4709"
       sodipodi:linespacing="125%"
       transform="scale(1,-1)"><tspan
         sodipodi:role="line"
         id="tspan4711"
         x="184.32031"
         y="-175.37555"
         style="font-size:16px">attributes</tspan></text>
<path
       style="fill:none;stroke:#000000;stroke-width:2.39996505;stroke-linecap:butt;stroke-linejoin:miter;stroke-miterlimit:4;stroke-opacity:1;stroke-dasharray:none;marker-end:url(#Arrow2Mend)"
       d="m 48.523059,168.50523 0,-43.6216"
       id="path4713"
       inkscape:connector-curvature="0" /><path
       style="fill:none;stroke:#000000;stroke-width:2.39996505;stroke-linecap:butt;stroke-linejoin:miter;stroke-miterlimit:4;stroke-opacity:1;stroke-dasharray:none;marker-end:url(#Arrow2Mend)"
       d="m 275.19997,28.06151 43.6216,0"
       id="path4713-8"
       inkscape:connector-curvature="0" /><path
       style="fill:none;stroke:#000000;stroke-width:2.4;stroke-linecap:butt;stroke-linejoin:miter;stroke-miterlimit:4;stroke-opacity:1;stroke-dasharray:none;marker-end:url(#Arrow2Mend)"
       d="M 223.80043,169.90156 191.73275,125.75449"
       id="path4713-2"
       inkscape:connector-curvature="0" /><path
       style="fill:none;stroke:#000000;stroke-width:2.4000001;stroke-linecap:butt;stroke-linejoin:miter;stroke-miterlimit:4;stroke-opacity:1;stroke-dasharray:none;marker-end:url(#Arrow2Mend)"
       d="m 222.73585,169.52881 32.06768,-44.14707"
       id="path4713-2-5"
       inkscape:connector-curvature="0" /><path
       style="fill:none;stroke:#000000;stroke-width:2.4;stroke-linecap:butt;stroke-linejoin:miter;stroke-miterlimit:4;stroke-opacity:1;stroke-dasharray:none;marker-end:url(#Arrow2Mend)"
       d="M 224.21645,169.79137 121.58082,124.30198"
       id="path4713-2-3"
       inkscape:connector-curvature="0" /><path
       style="fill:none;stroke:#000000;stroke-width:2.4000001;stroke-linecap:butt;stroke-linejoin:miter;stroke-miterlimit:4;stroke-opacity:1;stroke-dasharray:none;marker-end:url(#Arrow2Mend)"
       d="M 223.82457,169.57811 326.4602,124.08872"
       id="path4713-2-3-5"
       inkscape:connector-curvature="0" /></g></svg>