<?xml version="1.0" encoding="UTF-8" standalone="no"?>
<!-- Created with Inkscape (http://www.inkscape.org/) -->

<svg
   xmlns:dc="http://purl.org/dc/elements/1.1/"
   xmlns:cc="http://creativecommons.org/ns#"
   xmlns:rdf="http://www.w3.org/1999/02/22-rdf-syntax-ns#"
   xmlns:svg="http://www.w3.org/2000/svg"
   xmlns="http://www.w3.org/2000/svg"
   xmlns:sodipodi="http://sodipodi.sourceforge.net/DTD/sodipodi-0.dtd"
   xmlns:inkscape="http://www.inkscape.org/namespaces/inkscape"
   id="svg2"
   version="1.1"
   inkscape:version="0.48.4 r9939"
   width="483.75"
   height="268.75"
   xml:space="preserve"
   sodipodi:docname="uprove-credential.svg"><metadata
     id="metadata8"><rdf:RDF><cc:Work
         rdf:about=""><dc:format>image/svg+xml</dc:format><dc:type
           rdf:resource="http://purl.org/dc/dcmitype/StillImage" /><dc:title /></cc:Work></rdf:RDF></metadata><defs
     id="defs6"><marker
       inkscape:stockid="Arrow2Mend"
       orient="auto"
       refY="0.0"
       refX="0.0"
       id="Arrow2Mend"
       style="overflow:visible;"><path
         id="path4106"
         style="fill-rule:evenodd;stroke-width:0.62500000;stroke-linejoin:round;"
         d="M 8.7185878,4.0337352 L -2.2072895,0.016013256 L 8.7185884,-4.0017078 C 6.9730900,-1.6296469 6.9831476,1.6157441 8.7185878,4.0337352 z "
         transform="scale(0.6) rotate(180) translate(0,0)" /></marker><marker
       inkscape:stockid="Arrow2Lend"
       orient="auto"
       refY="0.0"
       refX="0.0"
       id="Arrow2Lend"
       style="overflow:visible;"><path
         id="path4100"
         style="fill-rule:evenodd;stroke-width:0.62500000;stroke-linejoin:round;"
         d="M 8.7185878,4.0337352 L -2.2072895,0.016013256 L 8.7185884,-4.0017078 C 6.9730900,-1.6296469 6.9831476,1.6157441 8.7185878,4.0337352 z "
         transform="scale(1.1) rotate(180) translate(1,0)" /></marker><marker
       inkscape:stockid="Arrow2Mend"
       orient="auto"
       refY="0"
       refX="0"
       id="Arrow2Mend-5"
       style="overflow:visible"><path
         inkscape:connector-curvature="0"
         id="path4106-0"
         style="fill-rule:evenodd;stroke-width:0.625;stroke-linejoin:round"
         d="M 8.7185878,4.0337352 -2.2072895,0.01601326 8.7185884,-4.0017078 c -1.7454984,2.3720609 -1.7354408,5.6174519 -6e-7,8.035443 z"
         transform="scale(-0.6,-0.6)" /></marker><marker
       inkscape:stockid="Arrow2Mend"
       orient="auto"
       refY="0"
       refX="0"
       id="Arrow2Mend-7"
       style="overflow:visible"><path
         inkscape:connector-curvature="0"
         id="path4106-05"
         style="fill-rule:evenodd;stroke-width:0.625;stroke-linejoin:round"
         d="M 8.7185878,4.0337352 -2.2072895,0.01601326 8.7185884,-4.0017078 c -1.7454984,2.3720609 -1.7354408,5.6174519 -6e-7,8.035443 z"
         transform="scale(-0.6,-0.6)" /></marker><marker
       inkscape:stockid="Arrow2Mend"
       orient="auto"
       refY="0"
       refX="0"
       id="Arrow2Mend-6"
       style="overflow:visible"><path
         inkscape:connector-curvature="0"
         id="path4106-7"
         style="fill-rule:evenodd;stroke-width:0.625;stroke-linejoin:round"
         d="M 8.7185878,4.0337352 -2.2072895,0.01601326 8.7185884,-4.0017078 c -1.7454984,2.3720609 -1.7354408,5.6174519 -6e-7,8.035443 z"
         transform="scale(-0.6,-0.6)" /></marker><marker
       inkscape:stockid="Arrow2Mend"
       orient="auto"
       refY="0"
       refX="0"
       id="Arrow2Mend-0"
       style="overflow:visible"><path
         inkscape:connector-curvature="0"
         id="path4106-78"
         style="fill-rule:evenodd;stroke-width:0.625;stroke-linejoin:round"
         d="M 8.7185878,4.0337352 -2.2072895,0.01601326 8.7185884,-4.0017078 c -1.7454984,2.3720609 -1.7354408,5.6174519 -6e-7,8.035443 z"
         transform="scale(-0.6,-0.6)" /></marker><marker
       inkscape:stockid="Arrow2Mend"
       orient="auto"
       refY="0"
       refX="0"
       id="Arrow2Mend-2"
       style="overflow:visible"><path
         inkscape:connector-curvature="0"
         id="path4106-07"
         style="fill-rule:evenodd;stroke-width:0.625;stroke-linejoin:round"
         d="M 8.7185878,4.0337352 -2.2072895,0.01601326 8.7185884,-4.0017078 c -1.7454984,2.3720609 -1.7354408,5.6174519 -6e-7,8.035443 z"
         transform="scale(-0.6,-0.6)" /></marker></defs><sodipodi:namedview
     pagecolor="#ffffff"
     bordercolor="#666666"
     borderopacity="1"
     objecttolerance="10"
     gridtolerance="10"
     guidetolerance="10"
     inkscape:pageopacity="0"
     inkscape:pageshadow="2"
     inkscape:window-width="1920"
     inkscape:window-height="1028"
     id="namedview4"
     showgrid="false"
     inkscape:zoom="2"
     inkscape:cx="128.375"
     inkscape:cy="111.49933"
     inkscape:window-x="0"
     inkscape:window-y="28"
     inkscape:window-maximized="1"
     inkscape:current-layer="g10" /><g
     id="g10"
     inkscape:groupmode="layer"
     inkscape:label="ink_ext_XXXXXX"
     transform="matrix(1.25,0,0,-1.25,0,268.75)"><path
       inkscape:connector-curvature="0"
       id="path14"
       style="fill:#ffffff;fill-opacity:1;fill-rule:nonzero;stroke:none"
       d="M 6,121.4 6,52.6 C 6,47.8504 9.85039,44 14.6,44 l 346.8,0 c 4.75,0 8.6,3.8504 8.6,8.6 l 0,68.8 c 0,4.75 -3.85,8.6 -8.6,8.6 L 14.6,130 C 9.85039,130 6,126.15 6,121.4" /><path
       inkscape:connector-curvature="0"
       id="path16"
       style="fill:none;stroke:#000000;stroke-width:2;stroke-linecap:butt;stroke-linejoin:miter;stroke-miterlimit:10;stroke-opacity:1;stroke-dasharray:none"
       d="M 6,121.4 6,52.6 C 6,47.8504 9.85039,44 14.6,44 l 346.8,0 c 4.75,0 8.6,3.8504 8.6,8.6 l 0,68.8 c 0,4.75 -3.85,8.6 -8.6,8.6 L 14.6,130 C 9.85039,130 6,126.15 6,121.4 z" /><path
       inkscape:connector-curvature="0"
       id="path18"
       style="fill:#666666;fill-opacity:1;fill-rule:nonzero;stroke:none"
       d="m 14,53 69,0 0,69 -69,0 0,-69 z" /><path
       inkscape:connector-curvature="0"
       id="path20"
       style="fill:none;stroke:#000000;stroke-width:2;stroke-linecap:butt;stroke-linejoin:miter;stroke-miterlimit:10;stroke-opacity:1;stroke-dasharray:none"
       d="m 14,53 69,0 0,69 -69,0 0,-69 z" /><path
       inkscape:connector-curvature="0"
       id="path22"
       style="fill:#cccccc;fill-opacity:1;fill-rule:nonzero;stroke:none"
       d="m 84,53 69,0 0,69 -69,0 0,-69 z" /><path
       inkscape:connector-curvature="0"
       id="path24"
       style="fill:none;stroke:#000000;stroke-width:2;stroke-linecap:butt;stroke-linejoin:miter;stroke-miterlimit:10;stroke-opacity:1;stroke-dasharray:none"
       d="m 84,53 69,0 0,69 -69,0 0,-69 z" /><path
       inkscape:connector-curvature="0"
       id="path26"
       style="fill:#cccccc;fill-opacity:1;fill-rule:nonzero;stroke:none"
       d="m 154,53 69,0 0,69 -69,0 0,-69 z" /><path
       inkscape:connector-curvature="0"
       id="path30"
       style="fill:#cccccc;fill-opacity:1;fill-rule:nonzero;stroke:none"
       d="m 224,53 69,0 0,69 -69,0 0,-69 z" /><g
       id="g4971"><path
         d="m 154,53 69,0 0,69 -69,0 0,-69 z"
         style="fill:none;stroke:#000000;stroke-width:2;stroke-linecap:butt;stroke-linejoin:miter;stroke-miterlimit:10;stroke-opacity:1;stroke-dasharray:none"
         id="path28"
         inkscape:connector-curvature="0" /><path
         d="m 224,53 69,0 0,69 -69,0 0,-69 z"
         style="fill:none;stroke:#000000;stroke-width:2;stroke-linecap:butt;stroke-linejoin:miter;stroke-miterlimit:10;stroke-opacity:1;stroke-dasharray:none"
         id="path32"
         inkscape:connector-curvature="0" /></g><path
       inkscape:connector-curvature="0"
       id="path34"
       style="fill:#cccccc;fill-opacity:1;fill-rule:nonzero;stroke:none"
       d="m 294,53 69,0 0,69 -69,0 0,-69 z" /><path
       inkscape:connector-curvature="0"
       id="path36"
       style="fill:none;stroke:#000000;stroke-width:2;stroke-linecap:butt;stroke-linejoin:miter;stroke-miterlimit:10;stroke-opacity:1;stroke-dasharray:none"
       d="m 294,53 69,0 0,69 -69,0 0,-69 z" /><text
       xml:space="preserve"
       style="font-size:32px;font-style:normal;font-weight:normal;line-height:125%;letter-spacing:0px;word-spacing:0px;fill:#000000;fill-opacity:1;stroke:none;font-family:Sans"
       x="41.304688"
       y="-78.921875"
       id="text3027"
       sodipodi:linespacing="125%"
       transform="scale(1,-1)"><tspan
         sodipodi:role="line"
         id="tspan3029"
         x="41.304688"
         y="-78.921875">s</tspan></text>
<text
       xml:space="preserve"
       style="font-size:32px;font-style:normal;font-weight:normal;line-height:125%;letter-spacing:0px;word-spacing:0px;fill:#000000;fill-opacity:1;stroke:none;font-family:Sans"
       x="106.42188"
       y="-80.365623"
       id="text3031"
       sodipodi:linespacing="125%"
       transform="scale(1,-1)"><tspan
         sodipodi:role="line"
         id="tspan3033"
         x="106.42188"
         y="-80.365623"
         style="letter-spacing:-3.20000005px">a<tspan
   style="font-size:25.60000038px;letter-spacing:-3.20000005px"
   id="tspan3051"
   dy="6.4000001">1</tspan></tspan></text>
<text
       xml:space="preserve"
       style="font-size:32px;font-style:normal;font-weight:normal;line-height:125%;letter-spacing:0px;word-spacing:0px;fill:#000000;fill-opacity:1;stroke:none;font-family:Sans"
       x="174.56563"
       y="-80.365623"
       id="text3035"
       sodipodi:linespacing="125%"
       transform="scale(1,-1)"><tspan
         sodipodi:role="line"
         id="tspan3037"
         x="174.56563"
         y="-80.365623"
         style="letter-spacing:-3.20000005px">a<tspan
   style="font-size:25.60000038px;letter-spacing:-3.20000005px"
   id="tspan3053"
   dy="6.4000001">2</tspan></tspan></text>
<text
       xml:space="preserve"
       style="font-size:32px;font-style:normal;font-weight:normal;line-height:125%;letter-spacing:0px;word-spacing:0px;fill:#000000;fill-opacity:1;stroke:none;font-family:Sans"
       x="244.57812"
       y="-80.490623"
       id="text3039"
       sodipodi:linespacing="125%"
       transform="scale(1,-1)"><tspan
         sodipodi:role="line"
         id="tspan3041"
         x="244.57812"
         y="-80.490623"
         style="letter-spacing:-3.20000005px">a<tspan
   style="font-size:25.60000038px"
   id="tspan3055"
   dy="6.4000001">3</tspan></tspan></text>
<text
       xml:space="preserve"
       style="font-size:32px;font-style:normal;font-weight:normal;line-height:125%;letter-spacing:0px;word-spacing:0px;fill:#000000;fill-opacity:1;stroke:none;font-family:Sans"
       x="314.07187"
       y="-80.365623"
       id="text3043"
       sodipodi:linespacing="125%"
       transform="scale(1,-1)"><tspan
         sodipodi:role="line"
         id="tspan3045"
         x="314.07187"
         y="-80.365623"
         dy="0 6.4000001"
         style="letter-spacing:-3.20000005px">a<tspan
   style="font-size:25.60000038px;letter-spacing:-3.20000005px"
   id="tspan3057">4</tspan></tspan></text>
<path
       inkscape:connector-curvature="0"
       id="path62-3"
       style="fill:#666666;fill-opacity:1;fill-rule:nonzero;stroke:none"
       d="m 344.88061,37.157506 -0.625,-3.125 c -0.3125,-1.5625 -1.25,-4.0625 -1.875,-5 -0.625,-0.9375 -2.1875,-3.125 -3.125,-4.375 -0.9375,-1.25 -2.8125,-3.4375 -3.75,-4.375 -0.9375,-0.9375 -2.5,-3.125 -3.125,-4.375 -0.625,-1.25 -2.1875,-3.75 -3.125,-5 -0.9375,-1.2500001 -3.4375,-3.7500001 -5,-5.0000001 -1.5625,-1.25 -3.75,-3.4374999 -4.375,-4.3749999 -0.625,-0.9375 0.3125,-2.8125 1.875,-3.75 1.5625,-0.9375 4.6875,-2.5 6.25,-3.125 1.5625,-0.625 5,-1.25 6.875,-1.25 1.875,0 4.6875,0.625 5.625,1.25 0.9375,0.625 1.875,3.125 1.875,5 0,1.875 0.3125,4.9999999 0.625,6.2499999 0.3125,1.25 1.875,3.75 3.125,5.0000001 1.25,1.25 3.75,3.4375 5,4.375 1.25,0.9375 2.8125,3.4375 3.125,5 0.3125,1.5625 0.625,4.6875 0.625,6.25 0,1.5625 0.3125,4.375 1.25,8.125" /><path
       inkscape:connector-curvature="0"
       id="path64-4"
       style="fill:none;stroke:#000000;stroke-width:2.5;stroke-linecap:butt;stroke-linejoin:miter;stroke-miterlimit:10;stroke-opacity:1;stroke-dasharray:none"
       d="m 344.88061,37.157506 -0.625,-3.125 c -0.3125,-1.5625 -1.25,-4.0625 -1.875,-5 -0.625,-0.9375 -2.1875,-3.125 -3.125,-4.375 -0.9375,-1.25 -2.8125,-3.4375 -3.75,-4.375 -0.9375,-0.9375 -2.5,-3.125 -3.125,-4.375 -0.625,-1.25 -2.1875,-3.75 -3.125,-5 -0.9375,-1.2500001 -3.4375,-3.7500001 -5,-5.0000001 -1.5625,-1.25 -3.75,-3.4374999 -4.375,-4.3749999 -0.625,-0.9375 0.3125,-2.8125 1.875,-3.75 1.5625,-0.9375 4.6875,-2.5 6.25,-3.125 1.5625,-0.625 5,-1.25 6.875,-1.25 1.875,0 4.6875,0.625 5.625,1.25 0.9375,0.625 1.875,3.125 1.875,5 0,1.875 0.3125,4.9999999 0.625,6.2499999 0.3125,1.25 1.875,3.75 3.125,5.0000001 1.25,1.25 3.75,3.4375 5,4.375 1.25,0.9375 2.8125,3.4375 3.125,5 0.3125,1.5625 0.625,4.6875 0.625,6.25 0,1.5625 0.3125,4.375 1.25,8.125" /><path
       inkscape:connector-curvature="0"
       id="path66-6"
       style="fill:#666666;fill-opacity:1;fill-rule:nonzero;stroke:none"
       d="m 361.13061,32.157506 1.875,-3.125 c 0.9375,-1.5625 1.875,-4.6875 1.875,-6.25 0,-1.5625 0,-4.6875 0,-6.25 0,-1.5625 0,-4.6875 0,-6.25 0,-1.5625001 0,-4.3750001 0,-5.6250001 0,-1.25 0.625,-3.4374999 1.25,-4.3749999 0.625,-0.9375 3.125,-3.125 5,-4.375 1.875,-1.25 5,-1.875 6.25,-1.25 1.25,0.625 3.4375,2.1875 4.375,3.125 0.9375,0.9375 3.125,2.8125 4.375,3.75 1.25,0.9375 1.5625,3.1249999 0.625,4.3749999 -0.9375,1.25 -2.5,4.0625 -3.125,5.6250001 -0.625,1.5625 -1.25,4.6875 -1.25,6.25 0,1.5625 -0.3125,4.375 -0.625,5.625 -0.3125,1.25 -1.25,3.75 -1.875,5 -0.625,1.25 -1.5625,3.75 -1.875,5 -0.3125,1.25 -0.625,3.125 -0.625,5" /><path
       inkscape:connector-curvature="0"
       id="path68-8"
       style="fill:none;stroke:#000000;stroke-width:2.5;stroke-linecap:butt;stroke-linejoin:miter;stroke-miterlimit:10;stroke-opacity:1;stroke-dasharray:none"
       d="m 361.13061,32.157506 1.875,-3.125 c 0.9375,-1.5625 1.875,-4.6875 1.875,-6.25 0,-1.5625 0,-4.6875 0,-6.25 0,-1.5625 0,-4.6875 0,-6.25 0,-1.5625001 0,-4.3750001 0,-5.6250001 0,-1.25 0.625,-3.4374999 1.25,-4.3749999 0.625,-0.9375 3.125,-3.125 5,-4.375 1.875,-1.25 5,-1.875 6.25,-1.25 1.25,0.625 3.4375,2.1875 4.375,3.125 0.9375,0.9375 3.125,2.8125 4.375,3.75 1.25,0.9375 1.5625,3.1249999 0.625,4.3749999 -0.9375,1.25 -2.5,4.0625 -3.125,5.6250001 -0.625,1.5625 -1.25,4.6875 -1.25,6.25 0,1.5625 -0.3125,4.375 -0.625,5.625 -0.3125,1.25 -1.25,3.75 -1.875,5 -0.625,1.25 -1.5625,3.75 -1.875,5 -0.3125,1.25 -0.625,3.125 -0.625,5" /><path
       inkscape:connector-curvature="0"
       id="path70-9"
       style="fill:#666666;fill-opacity:1;fill-rule:nonzero;stroke:none"
       d="m 325.93371,47.523506 3.125,2.34375 c 1.5625,1.17188 2.34375,3.90625 1.5625,5.46875 -0.78125,1.5625 1.17188,3.90625 3.90625,4.6875 2.73438,0.78125 5.46875,3.51563 5.46875,5.46875 0,1.95313 3.125,3.90625 6.25,3.90625 3.125,0 7.8125,0.39063 9.375,0.78125 1.5625,0.39063 3.51563,2.34375 3.90625,3.90625 0.39063,1.5625 0,3.125 -0.78125,3.125 -0.78125,0 0.39063,0.78125 2.34375,1.5625 1.95313,0.78125 5.46875,0 7.03125,-1.5625 1.5625,-1.5625 5.46875,-3.51562 7.8125,-3.90625 2.34375,-0.39062 5.07813,-2.34375 5.46875,-3.90625 0.39063,-1.5625 2.34375,-3.51562 3.90625,-3.90625 1.5625,-0.39062 3.90625,-0.78125 4.6875,-0.78125 0.78125,0 0.39063,-1.17187 -0.78125,-2.34375 -1.17187,-1.17187 -3.51562,-3.51562 -4.6875,-4.6875 -1.17187,-1.17187 -3.125,-2.73437 -3.90625,-3.125 -0.78125,-0.39062 0.39063,-0.78125 2.34375,-0.78125 1.95313,0 4.6875,-0.78125 5.46875,-1.5625 0.78125,-0.78125 -0.39062,-2.73437 -2.34375,-3.90625 -1.95312,-1.17187 -4.6875,-4.29687 -5.46875,-6.25 -0.78125,-1.95312 -0.78125,-5.07812 0,-6.25 0.78125,-1.17187 0,-2.73437 -1.5625,-3.125 -1.5625,-0.39062 -4.6875,-0.39062 -6.25,0 -1.5625,0.39063 -5.46875,-1.17187 -7.8125,-3.125 -2.34375,-1.95312 -5.85937,-4.29687 -7.03125,-4.6875 -1.17187,-0.39062 -3.125,1.17188 -3.90625,3.125 -0.78125,1.95313 -2.73437,3.90625 -3.90625,3.90625 -1.17187,0 -5.46875,-0.78125 -8.59375,-1.5625 -3.125,-0.78125 -6.64062,0 -7.03125,1.5625 -0.39062,1.5625 1.17188,5.07813 3.125,7.03125 1.95313,1.95313 1.95313,3.90625 0,3.90625 -1.95312,0 -5.85937,0 -7.8125,0 -1.95312,0 -3.90625,1.17188 -3.90625,2.34375 0,1.17188 0.39063,2.73438 1.5625,3.90625" /><path
       inkscape:connector-curvature="0"
       id="path72-0"
       style="fill:none;stroke:#000000;stroke-width:3.125;stroke-linecap:butt;stroke-linejoin:miter;stroke-miterlimit:10;stroke-opacity:1;stroke-dasharray:none"
       d="m 325.93371,47.523506 3.125,2.34375 c 1.5625,1.17188 2.34375,3.90625 1.5625,5.46875 -0.78125,1.5625 1.17188,3.90625 3.90625,4.6875 2.73438,0.78125 5.46875,3.51563 5.46875,5.46875 0,1.95313 3.125,3.90625 6.25,3.90625 3.125,0 7.8125,0.39063 9.375,0.78125 1.5625,0.39063 3.51563,2.34375 3.90625,3.90625 0.39063,1.5625 0,3.125 -0.78125,3.125 -0.78125,0 0.39063,0.78125 2.34375,1.5625 1.95313,0.78125 5.46875,0 7.03125,-1.5625 1.5625,-1.5625 5.46875,-3.51562 7.8125,-3.90625 2.34375,-0.39062 5.07813,-2.34375 5.46875,-3.90625 0.39063,-1.5625 2.34375,-3.51562 3.90625,-3.90625 1.5625,-0.39062 3.90625,-0.78125 4.6875,-0.78125 0.78125,0 0.39063,-1.17187 -0.78125,-2.34375 -1.17187,-1.17187 -3.51562,-3.51562 -4.6875,-4.6875 -1.17187,-1.17187 -3.125,-2.73437 -3.90625,-3.125 -0.78125,-0.39062 0.39063,-0.78125 2.34375,-0.78125 1.95313,0 4.6875,-0.78125 5.46875,-1.5625 0.78125,-0.78125 -0.39062,-2.73437 -2.34375,-3.90625 -1.95312,-1.17187 -4.6875,-4.29687 -5.46875,-6.25 -0.78125,-1.95312 -0.78125,-5.07812 0,-6.25 0.78125,-1.17187 0,-2.73437 -1.5625,-3.125 -1.5625,-0.39062 -4.6875,-0.39062 -6.25,0 -1.5625,0.39063 -5.46875,-1.17187 -7.8125,-3.125 -2.34375,-1.95312 -5.85937,-4.29687 -7.03125,-4.6875 -1.17187,-0.39062 -3.125,1.17188 -3.90625,3.125 -0.78125,1.95313 -2.73437,3.90625 -3.90625,3.90625 -1.17187,0 -5.46875,-0.78125 -8.59375,-1.5625 -3.125,-0.78125 -6.64062,0 -7.03125,1.5625 -0.39062,1.5625 1.17188,5.07813 3.125,7.03125 1.95313,1.95313 1.95313,3.90625 0,3.90625 -1.95312,0 -5.85937,0 -7.8125,0 -1.95312,0 -3.90625,1.17188 -3.90625,2.34375 0,1.17188 0.39063,2.73438 1.5625,3.90625" /><path
       inkscape:connector-curvature="0"
       id="path62-3-72"
       style="fill:#666666;fill-opacity:1;fill-rule:nonzero;stroke:none"
       d="m 336.08061,33.157506 -0.625,-3.125 c -0.3125,-1.5625 -1.25,-4.0625 -1.875,-5 -0.625,-0.9375 -2.1875,-3.125 -3.125,-4.375 -0.9375,-1.25 -2.8125,-3.4375 -3.75,-4.375 -0.9375,-0.9375 -2.5,-3.125 -3.125,-4.375 -0.625,-1.25 -2.1875,-3.75 -3.125,-5 -0.9375,-1.25 -3.4375,-3.75 -5,-5 -1.5625,-1.25 -3.75,-3.4375 -4.375,-4.375 -0.625,-0.9375 0.3125,-2.8125 1.875,-3.75 1.5625,-0.9375 4.6875,-2.5 6.25,-3.125 1.5625,-0.625 5,-1.25 6.875,-1.25 1.875,0 4.6875,0.625 5.625,1.25 0.9375,0.625 1.875,3.125 1.875,5 0,1.875 0.3125,5 0.625,6.25 0.3125,1.25 1.875,3.75 3.125,5 1.25,1.25 3.75,3.4375 5,4.375 1.25,0.9375 2.8125,3.4375 3.125,5 0.3125,1.5625 0.625,4.6875 0.625,6.25 0,1.5625 0.3125,4.375 1.25,8.125" /><path
       inkscape:connector-curvature="0"
       id="path64-4-6"
       style="fill:none;stroke:#000000;stroke-width:2.5;stroke-linecap:butt;stroke-linejoin:miter;stroke-miterlimit:10;stroke-opacity:1;stroke-dasharray:none"
       d="m 336.08061,33.157506 -0.625,-3.125 c -0.3125,-1.5625 -1.25,-4.0625 -1.875,-5 -0.625,-0.9375 -2.1875,-3.125 -3.125,-4.375 -0.9375,-1.25 -2.8125,-3.4375 -3.75,-4.375 -0.9375,-0.9375 -2.5,-3.125 -3.125,-4.375 -0.625,-1.25 -2.1875,-3.75 -3.125,-5 -0.9375,-1.25 -3.4375,-3.75 -5,-5 -1.5625,-1.25 -3.75,-3.4375 -4.375,-4.375 -0.625,-0.9375 0.3125,-2.8125 1.875,-3.75 1.5625,-0.9375 4.6875,-2.5 6.25,-3.125 1.5625,-0.625 5,-1.25 6.875,-1.25 1.875,0 4.6875,0.625 5.625,1.25 0.9375,0.625 1.875,3.125 1.875,5 0,1.875 0.3125,5 0.625,6.25 0.3125,1.25 1.875,3.75 3.125,5 1.25,1.25 3.75,3.4375 5,4.375 1.25,0.9375 2.8125,3.4375 3.125,5 0.3125,1.5625 0.625,4.6875 0.625,6.25 0,1.5625 0.3125,4.375 1.25,8.125" /><path
       inkscape:connector-curvature="0"
       id="path66-6-6"
       style="fill:#666666;fill-opacity:1;fill-rule:nonzero;stroke:none"
       d="m 352.33061,28.157506 1.875,-3.125 c 0.9375,-1.5625 1.875,-4.6875 1.875,-6.25 0,-1.5625 0,-4.6875 0,-6.25 0,-1.5625 0,-4.6875 0,-6.25 0,-1.5625 0,-4.375 0,-5.625 0,-1.25 0.625,-3.4375 1.25,-4.375 0.625,-0.9375 3.125,-3.125 5,-4.375 1.875,-1.25 5,-1.875 6.25,-1.25 1.25,0.625 3.4375,2.1875 4.375,3.125 0.9375,0.9375 3.125,2.8125 4.375,3.75 1.25,0.9375 1.5625,3.125 0.625,4.375 -0.9375,1.25 -2.5,4.0625 -3.125,5.625 -0.625,1.5625 -1.25,4.6875 -1.25,6.25 0,1.5625 -0.3125,4.375 -0.625,5.625 -0.3125,1.25 -1.25,3.75 -1.875,5 -0.625,1.25 -1.5625,3.75 -1.875,5 -0.3125,1.25 -0.625,3.125 -0.625,5" /><path
       inkscape:connector-curvature="0"
       id="path68-8-7"
       style="fill:none;stroke:#000000;stroke-width:2.5;stroke-linecap:butt;stroke-linejoin:miter;stroke-miterlimit:10;stroke-opacity:1;stroke-dasharray:none"
       d="m 352.33061,28.157506 1.875,-3.125 c 0.9375,-1.5625 1.875,-4.6875 1.875,-6.25 0,-1.5625 0,-4.6875 0,-6.25 0,-1.5625 0,-4.6875 0,-6.25 0,-1.5625 0,-4.375 0,-5.625 0,-1.25 0.625,-3.4375 1.25,-4.375 0.625,-0.9375 3.125,-3.125 5,-4.375 1.875,-1.25 5,-1.875 6.25,-1.25 1.25,0.625 3.4375,2.1875 4.375,3.125 0.9375,0.9375 3.125,2.8125 4.375,3.75 1.25,0.9375 1.5625,3.125 0.625,4.375 -0.9375,1.25 -2.5,4.0625 -3.125,5.625 -0.625,1.5625 -1.25,4.6875 -1.25,6.25 0,1.5625 -0.3125,4.375 -0.625,5.625 -0.3125,1.25 -1.25,3.75 -1.875,5 -0.625,1.25 -1.5625,3.75 -1.875,5 -0.3125,1.25 -0.625,3.125 -0.625,5" /><path
       inkscape:connector-curvature="0"
       id="path70-9-1"
       style="fill:#666666;fill-opacity:1;fill-rule:nonzero;stroke:none"
       d="m 317.13371,43.523506 3.125,2.34375 c 1.5625,1.17188 2.34375,3.90625 1.5625,5.46875 -0.78125,1.5625 1.17188,3.90625 3.90625,4.6875 2.73438,0.78125 5.46875,3.51563 5.46875,5.46875 0,1.95313 3.125,3.90625 6.25,3.90625 3.125,0 7.8125,0.39063 9.375,0.78125 1.5625,0.39063 3.51563,2.343754 3.90625,3.906254 0.39063,1.5625 0,3.125 -0.78125,3.125 -0.78125,0 0.39063,0.78125 2.34375,1.5625 1.95313,0.78125 5.46875,0 7.03125,-1.5625 1.5625,-1.5625 5.46875,-3.51562 7.8125,-3.90625 2.34375,-0.39062 5.07813,-2.343754 5.46875,-3.906254 0.39063,-1.5625 2.34375,-3.51562 3.90625,-3.90625 1.5625,-0.39062 3.90625,-0.78125 4.6875,-0.78125 0.78125,0 0.39063,-1.17187 -0.78125,-2.34375 -1.17187,-1.17187 -3.51562,-3.51562 -4.6875,-4.6875 -1.17187,-1.17187 -3.125,-2.73437 -3.90625,-3.125 -0.78125,-0.39062 0.39063,-0.78125 2.34375,-0.78125 1.95313,0 4.6875,-0.78125 5.46875,-1.5625 0.78125,-0.78125 -0.39062,-2.73437 -2.34375,-3.90625 -1.95312,-1.17187 -4.6875,-4.29687 -5.46875,-6.25 -0.78125,-1.95312 -0.78125,-5.07812 0,-6.25 0.78125,-1.17187 0,-2.73437 -1.5625,-3.125 -1.5625,-0.39062 -4.6875,-0.39062 -6.25,0 -1.5625,0.39063 -5.46875,-1.17187 -7.8125,-3.125 -2.34375,-1.95312 -5.85937,-4.29687 -7.03125,-4.6875 -1.17187,-0.39062 -3.125,1.17188 -3.90625,3.125 -0.78125,1.95313 -2.73437,3.90625 -3.90625,3.90625 -1.17187,0 -5.46875,-0.78125 -8.59375,-1.5625 -3.125,-0.78125 -6.64062,0 -7.03125,1.5625 -0.39062,1.5625 1.17188,5.07813 3.125,7.03125 1.95313,1.95313 1.95313,3.90625 0,3.90625 -1.95312,0 -5.85937,0 -7.8125,0 -1.95312,0 -3.90625,1.17188 -3.90625,2.34375 0,1.17188 0.39063,2.73438 1.5625,3.90625" /><path
       inkscape:connector-curvature="0"
       id="path72-0-3"
       style="fill:none;stroke:#000000;stroke-width:3.125;stroke-linecap:butt;stroke-linejoin:miter;stroke-miterlimit:10;stroke-opacity:1;stroke-dasharray:none"
       d="m 317.13371,43.523506 3.125,2.34375 c 1.5625,1.17188 2.34375,3.90625 1.5625,5.46875 -0.78125,1.5625 1.17188,3.90625 3.90625,4.6875 2.73438,0.78125 5.46875,3.51563 5.46875,5.46875 0,1.95313 3.125,3.90625 6.25,3.90625 3.125,0 7.8125,0.39063 9.375,0.78125 1.5625,0.39063 3.51563,2.343754 3.90625,3.906254 0.39063,1.5625 0,3.125 -0.78125,3.125 -0.78125,0 0.39063,0.78125 2.34375,1.5625 1.95313,0.78125 5.46875,0 7.03125,-1.5625 1.5625,-1.5625 5.46875,-3.51562 7.8125,-3.90625 2.34375,-0.39062 5.07813,-2.343754 5.46875,-3.906254 0.39063,-1.5625 2.34375,-3.51562 3.90625,-3.90625 1.5625,-0.39062 3.90625,-0.78125 4.6875,-0.78125 0.78125,0 0.39063,-1.17187 -0.78125,-2.34375 -1.17187,-1.17187 -3.51562,-3.51562 -4.6875,-4.6875 -1.17187,-1.17187 -3.125,-2.73437 -3.90625,-3.125 -0.78125,-0.39062 0.39063,-0.78125 2.34375,-0.78125 1.95313,0 4.6875,-0.78125 5.46875,-1.5625 0.78125,-0.78125 -0.39062,-2.73437 -2.34375,-3.90625 -1.95312,-1.17187 -4.6875,-4.29687 -5.46875,-6.25 -0.78125,-1.95312 -0.78125,-5.07812 0,-6.25 0.78125,-1.17187 0,-2.73437 -1.5625,-3.125 -1.5625,-0.39062 -4.6875,-0.39062 -6.25,0 -1.5625,0.39063 -5.46875,-1.17187 -7.8125,-3.125 -2.34375,-1.95312 -5.85937,-4.29687 -7.03125,-4.6875 -1.17187,-0.39062 -3.125,1.17188 -3.90625,3.125 -0.78125,1.95313 -2.73437,3.90625 -3.90625,3.90625 -1.17187,0 -5.46875,-0.78125 -8.59375,-1.5625 -3.125,-0.78125 -6.64062,0 -7.03125,1.5625 -0.39062,1.5625 1.17188,5.07813 3.125,7.03125 1.95313,1.95313 1.95313,3.90625 0,3.90625 -1.95312,0 -5.85937,0 -7.8125,0 -1.95312,0 -3.90625,1.17188 -3.90625,2.34375 0,1.17188 0.39063,2.73438 1.5625,3.90625" /><path
       inkscape:connector-curvature="0"
       id="path62-3-1"
       style="fill:#666666;fill-opacity:1;fill-rule:nonzero;stroke:none"
       d="m 324.88061,28.357506 -0.625,-3.125 c -0.3125,-1.5625 -1.25,-4.0625 -1.875,-5 -0.625,-0.9375 -2.1875,-3.125 -3.125,-4.375 -0.9375,-1.25 -2.8125,-3.4375 -3.75,-4.375 -0.9375,-0.9375 -2.5,-3.125 -3.125,-4.375 -0.625,-1.25 -2.1875,-3.75 -3.125,-5 -0.9375,-1.25 -3.4375,-3.75 -5,-5 -1.5625,-1.25 -3.75,-3.4375 -4.375,-4.375 -0.625,-0.9375 0.3125,-2.8125 1.875,-3.75 1.5625,-0.9375 4.6875,-2.5 6.25,-3.125 1.5625,-0.625 5,-1.25 6.875,-1.25 1.875,0 4.6875,0.625 5.625,1.25 0.9375,0.625 1.875,3.125 1.875,5 0,1.875 0.3125,5 0.625,6.25 0.3125,1.25 1.875,3.75 3.125,5 1.25,1.25 3.75,3.4375 5,4.375 1.25,0.9375 2.8125,3.4375 3.125,5 0.3125,1.5625 0.625,4.6875 0.625,6.25 0,1.5625 0.3125,4.375 1.25,8.125" /><path
       inkscape:connector-curvature="0"
       id="path64-4-7"
       style="fill:none;stroke:#000000;stroke-width:2.5;stroke-linecap:butt;stroke-linejoin:miter;stroke-miterlimit:10;stroke-opacity:1;stroke-dasharray:none"
       d="m 324.88061,28.357506 -0.625,-3.125 c -0.3125,-1.5625 -1.25,-4.0625 -1.875,-5 -0.625,-0.9375 -2.1875,-3.125 -3.125,-4.375 -0.9375,-1.25 -2.8125,-3.4375 -3.75,-4.375 -0.9375,-0.9375 -2.5,-3.125 -3.125,-4.375 -0.625,-1.25 -2.1875,-3.75 -3.125,-5 -0.9375,-1.25 -3.4375,-3.75 -5,-5 -1.5625,-1.25 -3.75,-3.4375 -4.375,-4.375 -0.625,-0.9375 0.3125,-2.8125 1.875,-3.75 1.5625,-0.9375 4.6875,-2.5 6.25,-3.125 1.5625,-0.625 5,-1.25 6.875,-1.25 1.875,0 4.6875,0.625 5.625,1.25 0.9375,0.625 1.875,3.125 1.875,5 0,1.875 0.3125,5 0.625,6.25 0.3125,1.25 1.875,3.75 3.125,5 1.25,1.25 3.75,3.4375 5,4.375 1.25,0.9375 2.8125,3.4375 3.125,5 0.3125,1.5625 0.625,4.6875 0.625,6.25 0,1.5625 0.3125,4.375 1.25,8.125" /><path
       inkscape:connector-curvature="0"
       id="path66-6-3"
       style="fill:#666666;fill-opacity:1;fill-rule:nonzero;stroke:none"
       d="m 341.13061,23.357506 1.875,-3.125 c 0.9375,-1.5625 1.875,-4.6875 1.875,-6.25 0,-1.5625 0,-4.6875 0,-6.25 0,-1.5625 0,-4.6875 0,-6.25 0,-1.5625 0,-4.375 0,-5.625 0,-1.25 0.625,-3.4375 1.25,-4.375 0.625,-0.9375 3.125,-3.125 5,-4.375 1.875,-1.25 5,-1.875 6.25,-1.25 1.25,0.625 3.4375,2.1875 4.375,3.125 0.9375,0.9375 3.125,2.8125 4.375,3.75 1.25,0.9375 1.5625,3.125 0.625,4.375 -0.9375,1.25 -2.5,4.0625 -3.125,5.625 -0.625,1.5625 -1.25,4.6875 -1.25,6.25 0,1.5625 -0.3125,4.375 -0.625,5.625 -0.3125,1.25 -1.25,3.75 -1.875,5 -0.625,1.25 -1.5625,3.75 -1.875,5 -0.3125,1.25 -0.625,3.125 -0.625,5" /><path
       inkscape:connector-curvature="0"
       id="path68-8-9"
       style="fill:none;stroke:#000000;stroke-width:2.5;stroke-linecap:butt;stroke-linejoin:miter;stroke-miterlimit:10;stroke-opacity:1;stroke-dasharray:none"
       d="m 341.13061,23.357506 1.875,-3.125 c 0.9375,-1.5625 1.875,-4.6875 1.875,-6.25 0,-1.5625 0,-4.6875 0,-6.25 0,-1.5625 0,-4.6875 0,-6.25 0,-1.5625 0,-4.375 0,-5.625 0,-1.25 0.625,-3.4375 1.25,-4.375 0.625,-0.9375 3.125,-3.125 5,-4.375 1.875,-1.25 5,-1.875 6.25,-1.25 1.25,0.625 3.4375,2.1875 4.375,3.125 0.9375,0.9375 3.125,2.8125 4.375,3.75 1.25,0.9375 1.5625,3.125 0.625,4.375 -0.9375,1.25 -2.5,4.0625 -3.125,5.625 -0.625,1.5625 -1.25,4.6875 -1.25,6.25 0,1.5625 -0.3125,4.375 -0.625,5.625 -0.3125,1.25 -1.25,3.75 -1.875,5 -0.625,1.25 -1.5625,3.75 -1.875,5 -0.3125,1.25 -0.625,3.125 -0.625,5" /><path
       inkscape:connector-curvature="0"
       id="path70-9-5"
       style="fill:#666666;fill-opacity:1;fill-rule:nonzero;stroke:none"
       d="m 305.93371,38.723506 3.125,2.34375 c 1.5625,1.17188 2.34375,3.90625 1.5625,5.46875 -0.78125,1.5625 1.17188,3.90625 3.90625,4.6875 2.73438,0.78125 5.46875,3.51563 5.46875,5.46875 0,1.95313 3.125,3.90625 6.25,3.90625 3.125,0 7.8125,0.39063 9.375,0.78125 1.5625,0.39063 3.51563,2.343754 3.90625,3.906254 0.39063,1.5625 0,3.125 -0.78125,3.125 -0.78125,0 0.39063,0.78125 2.34375,1.5625 1.95313,0.78125 5.46875,0 7.03125,-1.5625 1.5625,-1.5625 5.46875,-3.51562 7.8125,-3.90625 2.34375,-0.39062 5.07813,-2.343754 5.46875,-3.906254 0.39063,-1.5625 2.34375,-3.51562 3.90625,-3.90625 1.5625,-0.39062 3.90625,-0.78125 4.6875,-0.78125 0.78125,0 0.39063,-1.17187 -0.78125,-2.34375 -1.17187,-1.17187 -3.51562,-3.51562 -4.6875,-4.6875 -1.17187,-1.17187 -3.125,-2.73437 -3.90625,-3.125 -0.78125,-0.39062 0.39063,-0.78125 2.34375,-0.78125 1.95313,0 4.6875,-0.78125 5.46875,-1.5625 0.78125,-0.78125 -0.39062,-2.73437 -2.34375,-3.90625 -1.95312,-1.17187 -4.6875,-4.29687 -5.46875,-6.25 -0.78125,-1.95312 -0.78125,-5.07812 0,-6.25 0.78125,-1.17187 0,-2.73437 -1.5625,-3.125 -1.5625,-0.39062 -4.6875,-0.39062 -6.25,0 -1.5625,0.39063 -5.46875,-1.17187 -7.8125,-3.125 -2.34375,-1.95312 -5.85937,-4.29687 -7.03125,-4.6875 -1.17187,-0.39062 -3.125,1.17188 -3.90625,3.125 -0.78125,1.95313 -2.73437,3.90625 -3.90625,3.90625 -1.17187,0 -5.46875,-0.78125 -8.59375,-1.5625 -3.125,-0.78125 -6.64062,0 -7.03125,1.5625 -0.39062,1.5625 1.17188,5.07813 3.125,7.03125 1.95313,1.95313 1.95313,3.90625 0,3.90625 -1.95312,0 -5.85937,0 -7.8125,0 -1.95312,0 -3.90625,1.17188 -3.90625,2.34375 0,1.17188 0.39063,2.73438 1.5625,3.90625" /><path
       inkscape:connector-curvature="0"
       id="path72-0-7"
       style="fill:none;stroke:#000000;stroke-width:3.125;stroke-linecap:butt;stroke-linejoin:miter;stroke-miterlimit:10;stroke-opacity:1;stroke-dasharray:none"
       d="m 305.93371,38.723506 3.125,2.34375 c 1.5625,1.17188 2.34375,3.90625 1.5625,5.46875 -0.78125,1.5625 1.17188,3.90625 3.90625,4.6875 2.73438,0.78125 5.46875,3.51563 5.46875,5.46875 0,1.95313 3.125,3.90625 6.25,3.90625 3.125,0 7.8125,0.39063 9.375,0.78125 1.5625,0.39063 3.51563,2.343754 3.90625,3.906254 0.39063,1.5625 0,3.125 -0.78125,3.125 -0.78125,0 0.39063,0.78125 2.34375,1.5625 1.95313,0.78125 5.46875,0 7.03125,-1.5625 1.5625,-1.5625 5.46875,-3.51562 7.8125,-3.90625 2.34375,-0.39062 5.07813,-2.343754 5.46875,-3.906254 0.39063,-1.5625 2.34375,-3.51562 3.90625,-3.90625 1.5625,-0.39062 3.90625,-0.78125 4.6875,-0.78125 0.78125,0 0.39063,-1.17187 -0.78125,-2.34375 -1.17187,-1.17187 -3.51562,-3.51562 -4.6875,-4.6875 -1.17187,-1.17187 -3.125,-2.73437 -3.90625,-3.125 -0.78125,-0.39062 0.39063,-0.78125 2.34375,-0.78125 1.95313,0 4.6875,-0.78125 5.46875,-1.5625 0.78125,-0.78125 -0.39062,-2.73437 -2.34375,-3.90625 -1.95312,-1.17187 -4.6875,-4.29687 -5.46875,-6.25 -0.78125,-1.95312 -0.78125,-5.07812 0,-6.25 0.78125,-1.17187 0,-2.73437 -1.5625,-3.125 -1.5625,-0.39062 -4.6875,-0.39062 -6.25,0 -1.5625,0.39063 -5.46875,-1.17187 -7.8125,-3.125 -2.34375,-1.95312 -5.85937,-4.29687 -7.03125,-4.6875 -1.17187,-0.39062 -3.125,1.17188 -3.90625,3.125 -0.78125,1.95313 -2.73437,3.90625 -3.90625,3.90625 -1.17187,0 -5.46875,-0.78125 -8.59375,-1.5625 -3.125,-0.78125 -6.64062,0 -7.03125,1.5625 -0.39062,1.5625 1.17188,5.07813 3.125,7.03125 1.95313,1.95313 1.95313,3.90625 0,3.90625 -1.95312,0 -5.85937,0 -7.8125,0 -1.95312,0 -3.90625,1.17188 -3.90625,2.34375 0,1.17188 0.39063,2.73438 1.5625,3.90625" /><path
       inkscape:connector-curvature="0"
       id="path62-3-7"
       style="fill:#666666;fill-opacity:1;fill-rule:nonzero;stroke:none"
       d="m 314.88061,24.757506 -0.625,-3.125 c -0.3125,-1.5625 -1.25,-4.0625 -1.875,-5 -0.625,-0.9375 -2.1875,-3.125 -3.125,-4.375 -0.9375,-1.25 -2.8125,-3.4375 -3.75,-4.375 -0.9375,-0.9375 -2.5,-3.125 -3.125,-4.375 -0.625,-1.25 -2.1875,-3.75 -3.125,-5 -0.9375,-1.25 -3.4375,-3.75 -5,-5 -1.5625,-1.25 -3.75,-3.4375 -4.375,-4.375 -0.625,-0.9375 0.3125,-2.8125 1.875,-3.75 1.5625,-0.9375 4.6875,-2.5 6.25,-3.125 1.5625,-0.625 5,-1.25 6.875,-1.25 1.875,0 4.6875,0.625 5.625,1.25 0.9375,0.625 1.875,3.125 1.875,5 0,1.875 0.3125,5 0.625,6.25 0.3125,1.25 1.875,3.75 3.125,5 1.25,1.25 3.75,3.4375 5,4.375 1.25,0.9375 2.8125,3.4375 3.125,5 0.3125,1.5625 0.625,4.6875 0.625,6.25 0,1.5625 0.3125,4.375 1.25,8.125" /><path
       inkscape:connector-curvature="0"
       id="path64-4-3"
       style="fill:none;stroke:#000000;stroke-width:2.5;stroke-linecap:butt;stroke-linejoin:miter;stroke-miterlimit:10;stroke-opacity:1;stroke-dasharray:none"
       d="m 314.88061,24.757506 -0.625,-3.125 c -0.3125,-1.5625 -1.25,-4.0625 -1.875,-5 -0.625,-0.9375 -2.1875,-3.125 -3.125,-4.375 -0.9375,-1.25 -2.8125,-3.4375 -3.75,-4.375 -0.9375,-0.9375 -2.5,-3.125 -3.125,-4.375 -0.625,-1.25 -2.1875,-3.75 -3.125,-5 -0.9375,-1.25 -3.4375,-3.75 -5,-5 -1.5625,-1.25 -3.75,-3.4375 -4.375,-4.375 -0.625,-0.9375 0.3125,-2.8125 1.875,-3.75 1.5625,-0.9375 4.6875,-2.5 6.25,-3.125 1.5625,-0.625 5,-1.25 6.875,-1.25 1.875,0 4.6875,0.625 5.625,1.25 0.9375,0.625 1.875,3.125 1.875,5 0,1.875 0.3125,5 0.625,6.25 0.3125,1.25 1.875,3.75 3.125,5 1.25,1.25 3.75,3.4375 5,4.375 1.25,0.9375 2.8125,3.4375 3.125,5 0.3125,1.5625 0.625,4.6875 0.625,6.25 0,1.5625 0.3125,4.375 1.25,8.125" /><path
       inkscape:connector-curvature="0"
       id="path66-6-8"
       style="fill:#666666;fill-opacity:1;fill-rule:nonzero;stroke:none"
       d="m 331.13061,19.757506 1.875,-3.125 c 0.9375,-1.5625 1.875,-4.6875 1.875,-6.25 0,-1.5625 0,-4.6875 0,-6.25 0,-1.5625 0,-4.6875 0,-6.25 0,-1.5625 0,-4.375 0,-5.625 0,-1.25 0.625,-3.4375 1.25,-4.375 0.625,-0.9375 3.125,-3.125 5,-4.375 1.875,-1.25 5,-1.875 6.25,-1.25 1.25,0.625 3.4375,2.1875 4.375,3.125 0.9375,0.9375 3.125,2.8125 4.375,3.75 1.25,0.9375 1.5625,3.125 0.625,4.375 -0.9375,1.25 -2.5,4.0625 -3.125,5.625 -0.625,1.5625 -1.25,4.6875 -1.25,6.25 0,1.5625 -0.3125,4.375 -0.625,5.625 -0.3125,1.25 -1.25,3.75 -1.875,5 -0.625,1.25 -1.5625,3.75 -1.875,5 -0.3125,1.25 -0.625,3.125 -0.625,5" /><path
       inkscape:connector-curvature="0"
       id="path68-8-6"
       style="fill:none;stroke:#000000;stroke-width:2.5;stroke-linecap:butt;stroke-linejoin:miter;stroke-miterlimit:10;stroke-opacity:1;stroke-dasharray:none"
       d="m 331.13061,19.757506 1.875,-3.125 c 0.9375,-1.5625 1.875,-4.6875 1.875,-6.25 0,-1.5625 0,-4.6875 0,-6.25 0,-1.5625 0,-4.6875 0,-6.25 0,-1.5625 0,-4.375 0,-5.625 0,-1.25 0.625,-3.4375 1.25,-4.375 0.625,-0.9375 3.125,-3.125 5,-4.375 1.875,-1.25 5,-1.875 6.25,-1.25 1.25,0.625 3.4375,2.1875 4.375,3.125 0.9375,0.9375 3.125,2.8125 4.375,3.75 1.25,0.9375 1.5625,3.125 0.625,4.375 -0.9375,1.25 -2.5,4.0625 -3.125,5.625 -0.625,1.5625 -1.25,4.6875 -1.25,6.25 0,1.5625 -0.3125,4.375 -0.625,5.625 -0.3125,1.25 -1.25,3.75 -1.875,5 -0.625,1.25 -1.5625,3.75 -1.875,5 -0.3125,1.25 -0.625,3.125 -0.625,5" /><path
       inkscape:connector-curvature="0"
       id="path70-9-7"
       style="fill:#666666;fill-opacity:1;fill-rule:nonzero;stroke:none"
       d="m 295.93371,35.123506 3.125,2.34375 c 1.5625,1.17188 2.34375,3.90625 1.5625,5.46875 -0.78125,1.5625 1.17188,3.90625 3.90625,4.6875 2.73438,0.78125 5.46875,3.51563 5.46875,5.46875 0,1.95313 3.125,3.90625 6.25,3.90625 3.125,0 7.8125,0.39063 9.375,0.78125 1.5625,0.39063 3.51563,2.34375 3.90625,3.90625 0.39063,1.5625 0,3.125 -0.78125,3.125 -0.78125,0 0.39063,0.78125 2.34375,1.5625 1.95313,0.78125 5.46875,0 7.03125,-1.5625 1.5625,-1.5625 5.46875,-3.51562 7.8125,-3.90625 2.34375,-0.39062 5.07813,-2.34375 5.46875,-3.90625 0.39063,-1.5625 2.34375,-3.51562 3.90625,-3.90625 1.5625,-0.39062 3.90625,-0.78125 4.6875,-0.78125 0.78125,0 0.39063,-1.17187 -0.78125,-2.34375 -1.17187,-1.17187 -3.51562,-3.51562 -4.6875,-4.6875 -1.17187,-1.17187 -3.125,-2.73437 -3.90625,-3.125 -0.78125,-0.39062 0.39063,-0.78125 2.34375,-0.78125 1.95313,0 4.6875,-0.78125 5.46875,-1.5625 0.78125,-0.78125 -0.39062,-2.73437 -2.34375,-3.90625 -1.95312,-1.17187 -4.6875,-4.29687 -5.46875,-6.25 -0.78125,-1.95312 -0.78125,-5.07812 0,-6.25 0.78125,-1.17187 0,-2.73437 -1.5625,-3.125 -1.5625,-0.39062 -4.6875,-0.39062 -6.25,0 -1.5625,0.39063 -5.46875,-1.17187 -7.8125,-3.125 -2.34375,-1.95312 -5.85937,-4.29687 -7.03125,-4.6875 -1.17187,-0.39062 -3.125,1.17188 -3.90625,3.125 -0.78125,1.95313 -2.73437,3.90625 -3.90625,3.90625 -1.17187,0 -5.46875,-0.78125 -8.59375,-1.5625 -3.125,-0.78125 -6.64062,0 -7.03125,1.5625 -0.39062,1.5625 1.17188,5.07813 3.125,7.03125 1.95313,1.95313 1.95313,3.90625 0,3.90625 -1.95312,0 -5.85937,0 -7.8125,0 -1.95312,0 -3.90625,1.17188 -3.90625,2.34375 0,1.17188 0.39063,2.73438 1.5625,3.90625" /><path
       inkscape:connector-curvature="0"
       id="path72-0-8"
       style="fill:none;stroke:#000000;stroke-width:3.125;stroke-linecap:butt;stroke-linejoin:miter;stroke-miterlimit:10;stroke-opacity:1;stroke-dasharray:none"
       d="m 295.93371,35.123506 3.125,2.34375 c 1.5625,1.17188 2.34375,3.90625 1.5625,5.46875 -0.78125,1.5625 1.17188,3.90625 3.90625,4.6875 2.73438,0.78125 5.46875,3.51563 5.46875,5.46875 0,1.95313 3.125,3.90625 6.25,3.90625 3.125,0 7.8125,0.39063 9.375,0.78125 1.5625,0.39063 3.51563,2.34375 3.90625,3.90625 0.39063,1.5625 0,3.125 -0.78125,3.125 -0.78125,0 0.39063,0.78125 2.34375,1.5625 1.95313,0.78125 5.46875,0 7.03125,-1.5625 1.5625,-1.5625 5.46875,-3.51562 7.8125,-3.90625 2.34375,-0.39062 5.07813,-2.34375 5.46875,-3.90625 0.39063,-1.5625 2.34375,-3.51562 3.90625,-3.90625 1.5625,-0.39062 3.90625,-0.78125 4.6875,-0.78125 0.78125,0 0.39063,-1.17187 -0.78125,-2.34375 -1.17187,-1.17187 -3.51562,-3.51562 -4.6875,-4.6875 -1.17187,-1.17187 -3.125,-2.73437 -3.90625,-3.125 -0.78125,-0.39062 0.39063,-0.78125 2.34375,-0.78125 1.95313,0 4.6875,-0.78125 5.46875,-1.5625 0.78125,-0.78125 -0.39062,-2.73437 -2.34375,-3.90625 -1.95312,-1.17187 -4.6875,-4.29687 -5.46875,-6.25 -0.78125,-1.95312 -0.78125,-5.07812 0,-6.25 0.78125,-1.17187 0,-2.73437 -1.5625,-3.125 -1.5625,-0.39062 -4.6875,-0.39062 -6.25,0 -1.5625,0.39063 -5.46875,-1.17187 -7.8125,-3.125 -2.34375,-1.95312 -5.85937,-4.29687 -7.03125,-4.6875 -1.17187,-0.39062 -3.125,1.17188 -3.90625,3.125 -0.78125,1.95313 -2.73437,3.90625 -3.90625,3.90625 -1.17187,0 -5.46875,-0.78125 -8.59375,-1.5625 -3.125,-0.78125 -6.64062,0 -7.03125,1.5625 -0.39062,1.5625 1.17188,5.07813 3.125,7.03125 1.95313,1.95313 1.95313,3.90625 0,3.90625 -1.95312,0 -5.85937,0 -7.8125,0 -1.95312,0 -3.90625,1.17188 -3.90625,2.34375 0,1.17188 0.39063,2.73438 1.5625,3.90625" /><text
       xml:space="preserve"
       style="font-size:32px;font-style:normal;font-weight:normal;line-height:125%;letter-spacing:0px;word-spacing:0px;fill:#000000;fill-opacity:1;stroke:none;font-family:Sans"
       x="298.00003"
       y="14.400005"
       id="text3032-8"
       sodipodi:linespacing="125%"
       transform="scale(1,-1)"><tspan
         sodipodi:role="line"
         id="tspan3034-4"
         x="298.00003"
         y="14.400005"
         style="font-size:22.39999962px">c'</tspan></text>
<text
       xml:space="preserve"
       style="font-size:32px;font-style:normal;font-weight:normal;line-height:125%;letter-spacing:0px;word-spacing:0px;fill:#000000;fill-opacity:1;stroke:none;font-family:Sans"
       x="336.79999"
       y="11.600002"
       id="text3036-5"
       sodipodi:linespacing="125%"
       transform="scale(1,-1)"><tspan
         sodipodi:role="line"
         id="tspan3038-8"
         x="336.79999"
         y="11.600002"
         style="font-size:22.39999962px">r'</tspan></text>
<text
       xml:space="preserve"
       style="font-size:32px;font-style:normal;font-weight:normal;line-height:125%;letter-spacing:0px;word-spacing:0px;fill:#000000;fill-opacity:1;stroke:none;font-family:Sans"
       x="320.84161"
       y="-28.474749"
       id="text3042-8"
       sodipodi:linespacing="125%"
       transform="scale(1,-1)"><tspan
         sodipodi:role="line"
         id="tspan3044-5"
         x="320.84161"
         y="-28.474749"
         style="font-size:25.60000038px">z'</tspan></text>
</g></svg>